<?xml version="1.0" encoding="utf-8"?>
<svg xmlns="http://www.w3.org/2000/svg" id="Layer_1" version="1.1" viewBox="0 0 576 576">
  
  <defs>
    <style>
      .st0 {
        fill: none;
        stroke: #2e3192;
      }

      .st0, .st1 {
        stroke-miterlimit: 10;
      }

      .st2 {
        fill: #010101;
      }

      .st3 {
        font-family: Helvetica-Bold, Helvetica;
        font-size: 14.6px;
        font-weight: 700;
      }

      .st3, .st4 {
        isolation: isolate;
      }

      .st3, .st5, .st1 {
        fill: #fff;
      }

      .st6 {
        fill: #231f20;
      }

      .st7 {
        fill: #fabf2c;
      }

      .st8 {
        fill: #070807;
      }

      .st1 {
        stroke: #231f20;
        stroke-width: .2px;
      }
    </style>
  </defs>
  <polygon class="st1" points="132.3 514.7 41 225 279.6 44.6 518 225 426.7 514.7 132.3 514.7"/>
  <polygon class="st8" points="138.8 504.4 51.4 227 279.6 56 507.7 227 420.3 504.4 138.8 504.4"/>
  <polygon class="st7" points="165.9 470.3 94.8 246.2 279.6 107.8 464.2 246.2 393.2 470.3 165.9 470.3"/>
  <polygon class="st6" points="368.4 403.2 382.2 454 176.3 454 190.1 403.2 279.5 403.2 368.4 403.2"/>
  <rect class="st6" x="225.1" y="217.1" width="109.6" height="3.9"/>
  <path class="st5" d="M126.2,199.6c-1.3-1.7-2.7-3.6-3.5-4.7h0c1.1,2.4,2.6,6.4,4,10.2l-1.8,1.4c-2.8-2.1-6.6-5.1-8.6-6.7h0c1,1.1,2.6,3.1,3.8,4.8l2.7,3.5-1.9,1.6-7.5-9.8,3.2-2.4c2.7,2,6.1,4.5,7.5,5.8h0c-.7-1.5-2.3-5.7-3.4-8.9l3-2.3,7.5,9.8-2,1.6-2.8-3.7Z"/>
  <path class="st5" d="M132.1,195.8c.5,1,1.8,1.3,2.7.8,0,0,0,0,.1,0,.6-.3.9-1.1.7-1.8l2-1.6c.8,1.8,0,3.9-1.6,5-2.4,1.9-4.9.9-6.4-1.1-1.8-2.3-1.8-4.9.5-6.7s4.8-.8,6.2,1.1c.2.2.3.4.4.6l-4.9,3.8ZM134,192.4c-.7-.8-1.6-1.3-2.6-.5s-.9,1.7-.2,2.7l2.8-2.2Z"/>
  <path class="st5" d="M136.6,188.7c-.5-.6-1-1.3-1.4-1.8l2-1.5c.3.3.5.6.8.9-.1-1.1.4-2.2,1.3-2.8,1.5-1.1,3.2-.9,4.6,1l3.6,4.7-2,1.6-3.4-4.5c-.6-.8-1.4-1.2-2.2-.5s-1,1.5,0,2.8l3.2,4.1-2,1.6-4.3-5.5Z"/>
  <path class="st5" d="M142.7,181.1l1.1-.9-1.5-2,2-1.6,1.5,2,1.4-1.1,1.2,1.5-1.4,1.1,2.8,3.6c.4.6.8.6,1.4.2l.4-.4,1.1,1.4c-.4.5-.8.9-1.3,1.2-1.4,1.1-2.5.7-3.5-.6l-3-3.9-1.1.9-1.2-1.5Z"/>
  <path class="st5" d="M158.7,177.5c.5.6,1,1.2,1.6,1.8l-2,1.5c-.2-.2-.5-.4-.7-.6,0,1-.5,2-1.4,2.5-1.2,1.1-3,1-4.1-.1,0,0-.2-.2-.2-.3-1.3-1.7-.5-3.5,1.6-5.1l1.1-.8-.3-.5c-.4-.5-1-.9-1.9-.2s-.8,1.2-.4,1.8l-1.9,1.5c-.9-1.4-.9-3.1,1.3-4.8,2-1.5,3.6-1.6,5,.2l2.4,3.1ZM155.6,177.6l-.8.6c-1.2.9-1.4,1.7-.9,2.4.4.5,1.1.7,1.7.3,0,0,.1,0,.2-.1,1.3-1,.8-2,0-3v-.2Z"/>
  <path class="st5" d="M162,178l-8-10.4,2-1.6,8,10.4-2,1.6Z"/>
  <path class="st5" d="M168.5,166.8l3,3.9-2.1,1.6-7.5-9.8,4.3-3.4c2.1-1.6,4.2-1.3,5.4.2.8.9,1,2.3.4,3.4.6-.2,1.7-.3,3.1,1.5l.4.5c.5.6,1,1.2,1.6,1.8l-2,1.5c-.7-.6-1.4-1.3-1.9-2h-.1c-.8-1.3-1.5-1.5-3.1-.3l-1.4,1.2ZM167.2,165.1l1.8-1.4c1.1-.9,1.3-1.7.6-2.5s-1.5-.8-2.5,0l-1.9,1.4,2,2.5Z"/>
  <path class="st5" d="M177.6,160.9c.5,1,1.8,1.3,2.7.8,0,0,0,0,.1,0,.6-.3.9-1.1.7-1.8l2-1.6c.8,1.8.1,3.9-1.5,5-2.4,1.9-4.9.9-6.4-1.1-1.8-2.3-1.9-4.9.5-6.7s4.8-.8,6.2,1.1c.2.2.3.4.5.6l-4.9,3.8ZM179.4,157.4c-.7-.8-1.6-1.3-2.6-.5s-.9,1.7-.2,2.7l2.8-2.2Z"/>
  <path class="st5" d="M190.9,152.8c.5.6,1,1.3,1.6,1.8l-2,1.5c-.2-.2-.5-.4-.7-.6,0,.6,0,1.5-1.4,2.5-1.1,1.1-3,1.1-4.1,0,0,0-.2-.2-.2-.3-1.3-1.7-.5-3.5,1.6-5.1l1.1-.8-.3-.4c-.4-.5-1-.9-1.9-.2-.9.7-.8,1.1-.5,1.8l-1.9,1.5c-.9-1.4-.9-3.1,1.4-4.8,2-1.5,3.6-1.5,5,.2l2.4,3.1ZM187.9,152.8l-.8.6c-1.2.9-1.4,1.7-.9,2.4.4.5,1.1.7,1.7.3,0,0,.1,0,.2-.1,1.3-1,.8-2,0-3v-.2Z"/>
  <path class="st5" d="M192.9,137.8l6.4,8.4c.5.7,1,1.3,1.6,2l-2,1.5c-.2-.2-.5-.5-.7-.7,0,1-.5,2-1.4,2.5-1.9,1.4-4.2.8-6-1.5s-1.7-4.9.3-6.5c1.1-.8,1.9-.9,2.3-.7l-2.7-3.6,2-1.6ZM193,148.4c1.1,1.4,2.2,1.8,3.2,1,1.4-1.1.7-2.4-.1-3.4-1-1.3-1.9-2.1-3.2-1.1-1.1.8-1,2.1.1,3.5h0Z"/>
  <path class="st5" d="M194.6,136.4l2-1.6,1.4,1.8-2,1.6-1.4-1.8ZM197,139.4l2-1.6,5.7,7.4-2,1.6-5.7-7.4Z"/>
  <path class="st5" d="M202.2,138.3c-.5-.6-1-1.3-1.4-1.8l2-1.5c.3.3.6.6.8.9-.1-1.1.4-2.2,1.3-2.8,1.5-1.1,3.2-.9,4.6,1l3.6,4.7-2,1.6-3.4-4.5c-.6-.8-1.4-1.2-2.2-.5s-1,1.5,0,2.8l3.1,4.1-2,1.6-4.3-5.5Z"/>
  <path class="st5" d="M213.9,132.9c.6,1,1.8,1.3,2.8.8,0,0,0,0,.1,0,.6-.3.9-1.1.7-1.8l2-1.6c.8,1.8.1,3.9-1.5,5-2.4,1.9-4.9.9-6.4-1.1-1.8-2.3-1.9-4.9.5-6.7,2.5-1.9,4.8-.8,6.2,1.1.2.2.3.4.4.6l-4.9,3.8ZM215.8,129.5c-.7-.9-1.6-1.3-2.6-.5-.8.6-1,1.8-.4,2.6,0,0,0,0,.1.1l2.8-2.2Z"/>
  <path class="st5" d="M222.5,128c.6.5,1.5.4,2.1-.2.8-.6.8-1.1.5-1.5s-.8-.4-2.1.1c-2.9,1.3-3.8.8-4.6-.2s-1-2.8,1.3-4.5,3.9-1.1,4.8-.1l-1.9,1.5c-.3-.2-.9-.6-1.8.1-.7.5-.7,1-.4,1.3s.6.4,2.1-.3c2.9-1.3,3.9-.7,4.7.3s.9,3-1.4,4.8-4,1.3-5.2.2l2-1.5Z"/>
  <path class="st5" d="M229.8,122.4c.6.5,1.5.4,2.1-.2.8-.6.8-1.1.5-1.5s-.8-.4-2.1.1c-2.8,1.3-3.8.8-4.6-.2s-1-2.8,1.3-4.5,3.9-1.1,4.8-.1l-1.9,1.5c-.3-.2-.9-.6-1.8.1-.7.5-.7,1-.4,1.3s.6.4,2.1-.3c2.9-1.3,3.9-.7,4.7.3s.9,3-1.4,4.8-4,1.3-5.2.2l2-1.6Z"/>
  <path class="st5" d="M333.8,124.5c-.5,1.1-.1,2.4,1,3,1.1.9,2,.8,2.5,0s.4-1.5-1-3.2c-2.2-2.7-2.1-4.2-1.1-5.5,1.3-1.7,3.5-1.9,5.8-.1,2.6,2,2.6,4.2,1.6,5.7l-2.1-1.6c.5-.9.2-2-.6-2.5,0,0,0,0,0,0-.9-.7-1.6-.7-2.2,0s-.3,1.3,1,2.9c2.3,2.9,2.2,4.4,1.1,5.8-1.4,1.8-3.7,2-6.3,0s-2.9-4.1-1.7-6.1l2.1,1.6Z"/>
  <path class="st5" d="M338.7,132.8l8-10.4,2,1.6-8,10.4-2-1.6Z"/>
  <path class="st5" d="M346.5,133.6c-.8.8-.8,2.1,0,2.9,0,0,0,0,.1.1.5.5,1.3.6,1.9.2l2,1.6c-1.6,1.2-3.8,1.1-5.2-.2-2.4-1.9-2.1-4.5-.6-6.4,1.8-2.3,4.2-3,6.6-1.2s2,4.5.6,6.3c-.2.2-.3.4-.5.6l-4.9-3.7ZM350.3,134.5c.6-.9.9-1.8-.1-2.6s-1.9-.4-2.7.5l2.8,2.1Z"/>
  <path class="st5" d="M354.3,139.6c-.8.8-.8,2.1,0,2.9,0,0,0,0,.1.1.5.5,1.3.6,1.9.2l2,1.6c-1.6,1.2-3.8,1.1-5.2-.2-2.4-1.9-2.1-4.5-.6-6.4,1.8-2.3,4.2-3,6.6-1.2s2,4.5.6,6.3c-.2.2-.3.4-.5.6l-4.9-3.7ZM358.1,140.5c.6-.9.9-1.8-.1-2.6s-1.9-.4-2.7.5l2.8,2.1Z"/>
  <path class="st5" d="M360.5,148.5l-2.7,3.5-2-1.6,6.5-8.4c.5-.6.9-1.2,1.3-1.8l2,1.5c-.2.3-.4.7-.6,1,1-.4,2.2-.2,3,.6,1.6,1.3,1.9,3.6.1,5.9-2,2.6-4.5,2.9-6.3,1.6-.8-.5-1.2-1.3-1.2-2.3ZM365.9,147.6c1-1.3,1.1-2.5.1-3.3-1.1-.9-2.1-.5-3.3,1s-1.3,2.5-.2,3.4,2.3.4,3.4-1.1Z"/>
  <path class="st5" d="M374.9,154.3l-3,3.9-2.1-1.6,7.5-9.8,4.3,3.3c2.1,1.6,2.4,3.7,1.2,5.2-.7,1.1-2,1.5-3.2,1.2.3.5.7,1.6-.7,3.4l-.4.5c-.5.6-.9,1.3-1.3,2l-2-1.5c.4-.9.9-1.7,1.5-2.4h.1c.8-1.3.9-1.9-.6-3.1l-1.4-1.1ZM376.2,152.6l1.8,1.4c1.1.9,1.9.8,2.6,0s.4-1.6-.6-2.4l-1.8-1.4-1.9,2.5Z"/>
  <path class="st5" d="M382.8,161.5c-.8.8-.8,2.1,0,2.9,0,0,0,0,.1.1.5.5,1.3.6,1.9.2l2,1.6c-1.6,1.2-3.8,1.1-5.2-.2-2.4-1.9-2.1-4.5-.6-6.4,1.8-2.3,4.2-3,6.6-1.2s2,4.4.6,6.3c-.2.2-.3.4-.5.6l-4.9-3.7ZM386.6,162.4c.6-.9.9-1.8-.1-2.6s-1.9-.4-2.7.5l2.8,2.2Z"/>
  <path class="st5" d="M394,172.2c-.5.6-.9,1.3-1.4,2l-1.9-1.5c.1-.3.3-.5.4-.8-1,.3-2,0-2.8-.7-1.4-.8-1.8-2.6-1-4,0,0,.1-.2.2-.3,1.3-1.7,3.2-1.4,5.4.2l1.1.8.3-.4c.4-.5.6-1.2-.3-1.9s-1.3-.4-1.8,0l-1.9-1.5c1.1-1.2,2.7-1.7,5,0,2,1.5,2.4,3.1,1.1,4.9l-2.4,3.1ZM393.1,169.2l-.8-.6c-1.2-.9-2-.9-2.5-.2-.4.5-.4,1.3.2,1.7,0,0,0,0,.1.1,1.3,1,2.2.2,2.9-.8v-.2Z"/>
  <path class="st5" d="M408.9,170.1l-6.4,8.4c-.5.7-1,1.4-1.5,2l-2-1.5c.1-.2.4-.7.5-.8-1,.3-2.1,0-2.8-.7-1.9-1.4-1.9-3.8-.1-6.1s4.3-2.9,6.4-1.3c1.1.8,1.3,1.6,1.3,2.1l2.7-3.6,2,1.6ZM398.6,172.9c-1.1,1.4-1.1,2.6-.1,3.4,1.4,1.1,2.5,0,3.3-1,1-1.3,1.5-2.3.2-3.4-1.1-.8-2.3-.3-3.3,1Z"/>
  <path class="st5" d="M408.2,174.4l2,1.6-5.7,7.4-2-1.6,5.7-7.4ZM410.5,171.4l2,1.6-1.4,1.8-2-1.6,1.4-1.8Z"/>
  <path class="st5" d="M410.4,179.1c.5-.6,1-1.3,1.4-1.9l2,1.5c-.2.3-.4.7-.6,1,1-.4,2.2-.2,3,.5,1.5,1.1,1.7,2.9.2,4.7l-3.6,4.7-2-1.6,3.4-4.5c.6-.8.8-1.6,0-2.3s-1.7-.6-2.7.7l-3.2,4.1-2-1.6,4.2-5.5Z"/>
  <path class="st5" d="M418.5,188.9c-.8.8-.8,2,0,2.8,0,0,0,0,.1.1.5.5,1.3.6,1.9.2l2,1.6c-1.6,1.2-3.8,1.1-5.2-.2-2.4-1.9-2.1-4.5-.6-6.4,1.8-2.3,4.2-3,6.6-1.2s2,4.5.6,6.3c-.2.2-.3.4-.5.6l-4.9-3.7ZM422.4,189.8c.6-.9.9-1.9-.1-2.6s-1.9-.4-2.7.5l2.8,2.2Z"/>
  <path class="st5" d="M425.4,195.8c-.3.7,0,1.6.7,2,.8.6,1.2.5,1.6,0s.2-.9-.7-2c-1.9-2.4-1.8-3.5-1-4.5s2.5-1.6,4.7,0,2.1,3.5,1.4,4.6l-1.9-1.5c.1-.3.4-1-.6-1.7-.7-.5-1.1-.4-1.4,0s-.2.7.8,1.9c2,2.5,1.7,3.6.9,4.6s-2.7,1.6-5-.1-2.3-3.5-1.5-4.9l2,1.5Z"/>
  <path class="st5" d="M432.5,201.3c-.3.7,0,1.6.7,2,.8.6,1.2.5,1.6,0s.2-.9-.7-2c-1.9-2.4-1.8-3.5-1-4.5s2.5-1.6,4.7,0,2.1,3.5,1.3,4.6l-1.9-1.5c.1-.3.4-1-.6-1.7-.7-.5-1.1-.4-1.4,0s-.2.7.8,1.9c2,2.5,1.7,3.6.9,4.6s-2.7,1.6-5-.1-2.3-3.5-1.5-4.9l2,1.4Z"/>
  <path class="st5" d="M204.5,480.4h5.1c2.6,0,4.4,1.5,4.4,3.8s-2,3.9-4.5,3.9h-2.4v4.6h-2.7v-12.4ZM207.2,486h2c1.2,0,2.1-.5,2.1-1.7s-.9-1.8-2.1-1.8h-2.1v3.5Z"/>
  <path class="st5" d="M217.8,479.6v4.9c.6-.9,1.6-1.4,2.7-1.3,1.7,0,3.1,1,3.1,3.5v6h-2.6v-5.6c0-1.2-.4-1.8-1.5-1.8s-1.7,1.1-1.7,2.5v4.9h-2.6v-13.1h2.6Z"/>
  <path class="st5" d="M227.1,483.5c1,3.2,1.8,6.1,1.9,6.9h0c.2-.9.7-3,1.8-6.9h2.6l-3.1,9.6c-.9,2.7-1.6,3.5-3.9,3.5-.4,0-.8,0-1.2,0v-2.1c.2,0,.4,0,.7,0,.9,0,1.4-.3,1.8-1.4l-3.4-9.6h2.8Z"/>
  <path class="st5" d="M236.2,490c.2.8,1,1.2,1.8,1.1,1,0,1.3-.3,1.3-.9s-.4-.8-1.7-1.1c-3-.7-3.5-1.7-3.5-3s1-2.8,3.8-2.8,3.8,1.5,3.9,2.8h-2.4c0-.3-.3-1-1.5-1s-1.1.4-1.1.8.3.7,1.8,1c3.1.7,3.5,1.8,3.5,3.1s-1.1,2.9-4,2.9-4-1.4-4.2-3h2.5Z"/>
  <path class="st5" d="M243.1,479.6h2.6v2.4h-2.6v-2.4ZM243.1,483.5h2.6v9.3h-2.6v-9.3Z"/>
  <path class="st5" d="M255.6,489.7c-.3,2-2.2,3.4-4.2,3.2-2.9,0-4.4-2-4.4-4.8s1.7-4.9,4.5-4.9c2-.2,3.8,1.2,4,3.3,0,0,0,0,0,0h-2.5c0-.8-.8-1.4-1.6-1.3-1.2,0-1.8,1-1.8,2.8s.7,2.9,1.8,2.9c.8,0,1.4-.5,1.6-1.2h2.5Z"/>
  <path class="st5" d="M264.6,490.3c0,.8,0,1.6.1,2.4h-2.5c0-.3-.1-.6-.1-.9-.6.8-1.6,1.3-2.6,1.1-1.6.2-3-1-3.2-2.5,0-.1,0-.3,0-.4,0-2.1,1.7-3.1,4.4-3.1h1.3v-.6c0-.7-.2-1.3-1.4-1.3s-1.3.5-1.4,1.1h-2.4c.1-1.6,1.1-3,4-3,2.5,0,3.8,1,3.8,3.2v3.9ZM262.1,488.5h-1c-1.5,0-2.1.5-2.1,1.4,0,.7.5,1.2,1.1,1.2,0,0,.1,0,.2,0,1.6,0,1.8-1.1,1.8-2.4v-.2Z"/>
  <path class="st5" d="M266.5,492.7v-13.1h2.6v13.1h-2.6Z"/>
  <path class="st5" d="M277.9,487.8v5h-2.6v-12.3h5.4c2.7,0,4.2,1.5,4.2,3.4,0,1.3-.6,2.4-1.8,2.9.6.2,1.5.9,1.5,3.1v.6c0,.8,0,1.6.2,2.4h-2.5c-.2-.9-.3-1.8-.3-2.8h0c0-1.5-.3-2.1-2.3-2.1h-1.8ZM277.9,485.7h2.2c1.5,0,2-.5,2-1.6s-.7-1.6-2-1.6h-2.3v3.2Z"/>
  <path class="st5" d="M288.3,488.7c0,1.1.6,2.2,1.9,2.2.7.1,1.4-.3,1.6-1h2.6c-.5,1.9-2.3,3.2-4.3,3-3.1,0-4.4-2.2-4.4-4.7s1.5-5,4.5-5,4.3,2.3,4.3,4.6c0,.3,0,.5,0,.8h-6.2ZM291.9,487.1c0-1.1-.4-2-1.7-2s-1.7.9-1.8,2h3.5Z"/>
  <path class="st5" d="M303.6,490.3c0,.8,0,1.6.1,2.4h-2.5c0-.3-.1-.6-.1-.9-.6.8-1.6,1.3-2.6,1.1-1.6.2-3-1-3.2-2.5,0-.1,0-.3,0-.4,0-2.1,1.7-3.1,4.4-3.1h1.3v-.6c0-.7-.2-1.3-1.4-1.3s-1.3.5-1.4,1.1h-2.4c.1-1.6,1.1-3,4-3,2.5,0,3.8,1,3.8,3.2v3.9ZM301.1,488.5h-1.1c-1.5,0-2.1.5-2.1,1.4,0,.7.5,1.2,1.1,1.2,0,0,.1,0,.2,0,1.6,0,1.8-1.1,1.8-2.4v-.2Z"/>
  <path class="st5" d="M314,479.6v13.1h-2.5c0-.3-.1-.8-.1-1-.6.9-1.6,1.3-2.6,1.2-2.3,0-3.8-1.9-3.8-4.8s1.6-4.9,4.2-4.9,2.1.5,2.2.9v-4.5h2.6ZM307.5,488.1c0,1.8.7,2.8,2,2.8s2-1.5,2-2.8-.2-2.8-1.9-2.8c-1.3,0-2,1.1-2,2.8Z"/>
  <path class="st5" d="M315.8,479.6h2.6v2.4h-2.6v-2.4ZM315.8,483.5h2.6v9.3h-2.6v-9.3Z"/>
  <path class="st5" d="M320.3,485.8v-2.3h2.5c0,.2,0,.9,0,1.2.6-.9,1.6-1.5,2.7-1.4,1.9,0,3.1,1.3,3.1,3.6v5.9h-2.6v-5.6c0-1-.3-1.8-1.5-1.8s-1.7.6-1.7,2.2v5.2h-2.6v-7Z"/>
  <path class="st5" d="M332.6,488.7c0,1.1.6,2.2,1.9,2.2.7.1,1.4-.3,1.6-1h2.6c-.5,1.9-2.3,3.2-4.3,3-3.1,0-4.4-2.2-4.4-4.7s1.5-5,4.5-5,4.3,2.3,4.3,4.6c0,.3,0,.5,0,.8h-6.2ZM336.2,487.1c0-1.1-.4-2-1.7-2s-1.7.9-1.8,2h3.5Z"/>
  <path class="st5" d="M342,490c.2.8,1,1.2,1.8,1.1.9,0,1.3-.3,1.3-.9s-.4-.8-1.7-1.1c-3-.7-3.5-1.7-3.5-3s1-2.8,3.8-2.8,3.8,1.5,3.8,2.8h-2.4c0-.3-.3-1-1.5-1s-1.1.4-1.1.8.3.7,1.8,1c3.1.7,3.5,1.8,3.5,3.1s-1.2,2.9-4,2.9-4-1.4-4.2-3h2.5Z"/>
  <path class="st5" d="M350.9,490c.2.8,1,1.2,1.7,1.1,1,0,1.3-.3,1.3-.9s-.4-.8-1.7-1.1c-3-.7-3.5-1.7-3.5-3s1-2.8,3.8-2.8,3.8,1.5,3.8,2.8h-2.4c0-.3-.3-1-1.5-1s-1.1.4-1.1.8.3.7,1.8,1c3.1.7,3.5,1.8,3.5,3.1s-1.1,2.9-4,2.9-4-1.4-4.2-3h2.5Z"/>
  <path class="st5" d="M140.2,440.2c1.1-.6,1.5-1.9.9-3-.4-1.4-1.1-1.8-2-1.5s-1.2,1-1,3.2c.3,3.5-.7,4.6-2.2,5.1-2.1.6-3.9-.5-4.8-3.3-1-3.1.3-4.9,2-5.6l.8,2.6c-.7.3-1.3,1-.9,2.5.3,1,1,1.5,1.8,1.3s1-.9.9-2.9c-.3-3.7.8-4.8,2.4-5.4,2.2-.7,4.1.5,5.1,3.6,1,3.1,0,5-2.1,6l-.8-2.6Z"/>
  <path class="st5" d="M139.4,428.4l4.2-1.3.8,2.4-10.1,3.2-2.1.7-.7-2.4c.4-.2.7-.3,1.1-.4-1.1-.3-1.9-1.1-2.1-2.2-.6-2,.6-4.1,3.4-4.9,3.1-1,5.4.2,6.1,2.3.3.9.2,1.8-.4,2.5ZM134.5,426c-1.6.5-2.3,1.5-2,2.6.4,1.4,1.5,1.6,3.3,1s2.5-1.3,2.1-2.6-1.6-1.6-3.4-1.1Z"/>
  <path class="st5" d="M125.3,424.4l-.8-2.5,2.2-.7.8,2.5-2.2.7ZM129,423.2l-.8-2.5,8.9-2.8.8,2.5-8.9,2.8Z"/>
  <path class="st5" d="M129.9,417.9l-2.4.8-.8-2.4c.2,0,1.1-.4,1.5-.5-1.3-.1-2.4-1-2.6-2.3l2.3-.7c.5,1.8,1.3,2.7,3.8,1.9l3.9-1.2.8,2.5-6.5,2Z"/>
  <path class="st5" d="M121.9,413.3l-.8-2.5,2.2-.7.8,2.5-2.2.7ZM125.5,412.2l-.8-2.5,8.9-2.8.8,2.5-8.9,2.8Z"/>
  <path class="st5" d="M124.3,408.4l-.4-1.4-2.4.8-.8-2.5,2.4-.8-.5-1.7,1.8-.6.5,1.7,4.4-1.4c.7-.2.9-.5.6-1.2,0-.1-.1-.4-.2-.5l1.7-.5c.3.5.5,1,.7,1.6.5,1.7-.2,2.6-1.7,3.1l-4.7,1.5.4,1.4-1.8.6Z"/>
  <path class="st5" d="M126.1,391.9c.9-.3,1.8-.5,2.6-.8l.8,2.4c-.2.1-.7.3-1,.4,1,.2,1.8,1,2,2.1.6,1.8-.2,3.3-2.4,4l-5.8,1.8-.8-2.5,5.3-1.7c1-.3,1.7-.9,1.4-1.9s-1.1-1.4-2.8-.9l-4.7,1.5-.8-2.5,6.3-2Z"/>
  <path class="st5" d="M123.4,382.4c.8-.2,1.5-.5,2.2-.8l.7,2.3c-.3.2-.5.3-.8.4.6.2,1.4.6,1.9,2.2.6,1.5,0,3.1-1.5,3.8-.1,0-.2,0-.3.1-2,.6-3.5-.7-4.3-3.3-.1-.4-.3-1-.4-1.3l-.5.2c-.6.2-1.2.6-.8,1.8s.8,1.1,1.5,1l.7,2.3c-1.6.4-3.2-.2-4-2.9-.7-2.4-.2-4,1.9-4.6l3.7-1.2ZM122.4,385.3c0,.2.2.7.3,1,.5,1.5,1.1,1.9,1.9,1.6.6-.2,1-.8.8-1.5,0,0,0-.1,0-.2-.5-1.6-1.6-1.4-2.8-1h-.2Z"/>
  <path class="st5" d="M125,379.6l-12.5,3.9-.8-2.5,12.5-3.9.8,2.4Z"/>
  <path class="st5" d="M116.8,369.7l4.7-1.5.8,2.5-11.8,3.7-1.6-5.2c-.8-2.6.2-4.4,2-5,1.2-.5,2.5-.1,3.4.8,0-.6.4-1.7,2.5-2.4l.6-.2c.8-.2,1.5-.5,2.2-.9l.8,2.4c-.8.5-1.7.9-2.6,1.1h-.2c-1.3.4-1.8.9-1.2,2.8l.4,1.7ZM114.7,370.3l-.7-2.1c-.4-1.4-1.1-1.8-2.1-1.5s-1.3,1.1-.9,2.4l.7,2.2,3-1Z"/>
  <path class="st5" d="M114.4,359.2c1.1-.3,2-1.2,1.6-2.5-.3-1-.8-1.2-1.4-1.3l-.8-2.5c2,0,3.7,1.3,4.1,3.2.9,2.9-.9,4.9-3.2,5.6-2.8.9-5.2,0-6.1-2.8-.9-3,.9-4.8,3.1-5.5.2,0,.5-.2.8-.2l1.8,5.8ZM111.8,356.2c-1,.3-1.8,1-1.4,2.2s1.3,1.4,2.4,1.1l-1.1-3.4Z"/>
  <path class="st5" d="M111.4,343.9c.8-.2,1.5-.5,2.2-.8l.7,2.3c-.3.2-.5.3-.8.4.6.2,1.4.6,1.8,2.2.6,1.5,0,3.1-1.5,3.8-.1,0-.2,0-.4.1-2,.6-3.5-.7-4.3-3.3-.1-.4-.3-1-.4-1.3l-.5.2c-.6.2-1.1.6-.8,1.8s.8,1.1,1.5,1l.7,2.3c-1.6.4-3.2-.2-4-2.9-.7-2.4-.2-4,1.9-4.6l3.7-1.2ZM110.4,346.8c0,.2.2.7.3,1,.5,1.5,1.1,1.9,1.9,1.6.6-.2,1-.8.9-1.4,0,0,0-.1,0-.2-.5-1.6-1.6-1.4-2.8-1h-.2Z"/>
  <path class="st5" d="M97.9,336.9l10.1-3.1c.8-.3,1.6-.5,2.4-.8l.7,2.4c-.2.1-.7.3-.9.4,1,.3,1.7,1.1,1.9,2.2.7,2.2-.7,4.2-3.4,5.1s-5.2,0-6-2.6c-.4-.8-.3-1.7.2-2.4l-4.3,1.3-.8-2.5ZM107.9,340.5c1.7-.5,2.5-1.5,2.1-2.7-.5-1.7-2-1.4-3.3-1.1-1.5.5-2.6,1.1-2.1,2.7.4,1.3,1.7,1.6,3.4,1.1h0Z"/>
  <path class="st5" d="M97.3,334.9l-.8-2.5,2.2-.7.8,2.5-2.3.7ZM101,333.7l-.8-2.5,8.9-2.8.8,2.5-8.8,2.8Z"/>
  <path class="st5" d="M101.8,328.5c-.8.2-1.6.5-2.2.7l-.7-2.4c.4-.2.7-.3,1.1-.4-1.1-.3-1.9-1.1-2.1-2.2-.5-1.8.3-3.4,2.5-4l5.6-1.8.8,2.5-5.4,1.7c-1,.3-1.6.9-1.3,1.9s1.1,1.5,2.7,1l4.9-1.5.8,2.5-6.6,2.1Z"/>
  <path class="st5" d="M100.8,315.7c1.1-.3,2-1.2,1.6-2.5-.1-.7-.7-1.2-1.4-1.2l-.8-2.5c2,0,3.7,1.2,4.1,3.2.9,2.9-.9,4.9-3.2,5.6-2.8.9-5.2,0-6.1-2.8-1-3,.9-4.8,3.1-5.5.3,0,.5-.1.8-.2l1.8,5.8ZM98.2,312.7c-1,.3-1.8,1-1.4,2.2s1.3,1.4,2.4,1.1l-1.1-3.4Z"/>
  <path class="st5" d="M99.1,306c.7-.4.9-1.3.6-2-.3-.9-.7-1.1-1.2-1s-.7.6-.6,2c.2,3.1-.6,3.9-1.8,4.3s-3,0-3.8-2.8.3-4.1,1.5-4.5l.7,2.3c-.3.2-.9.6-.5,1.7.3.8.7,1,1.1.8s.6-.5.5-2c-.2-3.2.6-3.9,1.9-4.3s3.1.2,4,2.9-.1,4.2-1.6,4.9l-.8-2.4Z"/>
  <path class="st5" d="M96.4,297.3c.7-.4.9-1.3.6-2-.3-.9-.7-1.1-1.2-1s-.7.6-.6,2c.2,3.1-.5,3.9-1.8,4.2s-3,0-3.8-2.8.3-4.1,1.5-4.5l.7,2.3c-.3.2-.9.6-.5,1.7.3.8.7,1,1.1.8s.6-.5.4-2c-.2-3.2.7-3.9,2-4.3,1.5-.5,3.1.2,4,2.9s-.1,4.2-1.6,4.9l-.8-2.4Z"/>
  <path class="st5" d="M464.7,282.8l11.8,3.8-1,3.2c-3.1.6-8.8,1.8-10.2,1.9h0c1.3.3,3.4.9,5.2,1.5l3.5,1.1-.7,2.3-11.8-3.8,1-3c2.7-.5,9.2-1.8,10.7-1.9h0c-1.1-.2-3.5-1-5.6-1.7l-3.6-1.1.8-2.4Z"/>
  <path class="st5" d="M460.9,303.6c-.9-.3-1.8-.6-2.6-.8l.8-2.4c.2,0,.7.2,1,.3-.7-.8-.9-1.9-.4-2.8.6-1.8,2-2.6,4.2-1.9l5.8,1.8-.8,2.4-5.3-1.7c-1-.3-1.9-.3-2.2.8s0,1.8,1.8,2.3l4.7,1.5-.8,2.4-6.3-2Z"/>
  <path class="st5" d="M466.7,307l-.4,1.4,2.4.8-.8,2.4-2.4-.8-.6,1.7-1.8-.6.5-1.7-4.4-1.4c-.7-.2-1-.1-1.2.6,0,.1-.1.4-.2.6l-1.7-.5c0-.6.2-1.2.4-1.7.6-1.7,1.7-2,3.2-1.5l4.7,1.5.4-1.4,1.8.6Z"/>
  <path class="st5" d="M462.2,313.1c.9.3,1.7.5,2.4.8l-.8,2.4c-.2,0-1.1-.3-1.6-.4,1,.8,1.3,2.2.8,3.4l-2.3-.7c.6-1.8.5-3-1.9-3.8l-3.9-1.2.8-2.5,6.4,2.1Z"/>
  <path class="st5" d="M462.4,320.5l-.8,2.5-8.8-2.8.8-2.5,8.8,2.8ZM466,321.6l-.8,2.4-2.2-.7.8-2.5,2.2.7Z"/>
  <path class="st5" d="M461.2,324.2l-.4,1.4,2.4.8-.8,2.5-2.4-.8-.5,1.7-1.8-.6.6-1.7-4.4-1.4c-.7-.2-1,0-1.2.6,0,.2-.1.4-.2.6l-1.7-.5c0-.6.2-1.1.4-1.7.5-1.7,1.7-2,3.2-1.5l4.7,1.5.4-1.4,1.8.6Z"/>
  <path class="st5" d="M459,331l-.8,2.5-8.8-2.8.8-2.4,8.9,2.8ZM462.6,332.2l-.8,2.4-2.2-.7.8-2.4,2.2.7Z"/>
  <path class="st5" d="M450.5,342.4c-2.7-.9-4.1-3.1-3.2-5.9s3.4-3.7,6-2.9,4.1,3.1,3.2,6c-.8,2.6-3.2,3.7-6,2.8ZM452.5,336.2c-1.7-.5-2.9-.1-3.4,1s.4,2.2,2.1,2.7,2.9.2,3.4-1-.2-2.2-2.1-2.7h0Z"/>
  <path class="st5" d="M452.2,344.8c.8.2,1.6.5,2.2.7l-.8,2.4c-.2,0-.9-.2-1.1-.3.7.8.9,2,.5,3-.6,1.8-2.1,2.5-4.4,1.8l-5.6-1.8.8-2.5,5.4,1.7c1,.3,1.8.2,2.2-.9s0-1.8-1.6-2.3l-4.9-1.6.8-2.4,6.6,2.1Z"/>
  <path class="st5" d="M442.3,360.6c-.8-.3-1.5-.5-2.3-.6l.8-2.3c.3,0,.6,0,.9.2-.6-.8-.7-1.9-.3-2.8.3-1.6,1.8-2.6,3.4-2.3.1,0,.2,0,.4,0,2,.6,2.4,2.6,1.6,5.2-.1.4-.3,1-.4,1.3l.5.2c.6.2,1.3.2,1.7-1s0-1.4-.6-1.7l.7-2.3c1.5.6,2.5,2,1.6,4.7-.8,2.4-2.1,3.4-4.2,2.7l-3.7-1.2ZM444.8,358.8c0-.2.2-.7.3-1,.5-1.5.2-2.2-.6-2.4-.6-.2-1.3,0-1.5.7,0,0,0,.1,0,.2-.5,1.5.5,2.1,1.7,2.5h.2Z"/>
  <path class="st5" d="M439.3,362.1l12.5,4-.8,2.4-12.5-4,.8-2.4Z"/>
  <path class="st5" d="M440.4,375l-4.7-1.5.8-2.5,11.8,3.8-1.6,5.2c-.8,2.6-2.7,3.5-4.5,2.9-1.2-.3-2.1-1.3-2.2-2.6-.4.5-1.3,1.2-3.4.5l-.6-.2c-.7-.3-1.5-.5-2.3-.5l.8-2.4c.9,0,1.9.2,2.7.6h.2c1.3.4,2,.3,2.6-1.6l.5-1.6ZM442.4,375.6l-.7,2.1c-.4,1.4,0,2.1.9,2.4s1.7-.2,2.1-1.4l.7-2.2-3-.9Z"/>
  <path class="st5" d="M436.3,385c-1-.5-2.2,0-2.7,1,0,0,0,.1,0,.2-.3.6-.1,1.4.4,1.8l-.8,2.4c-1.6-1.1-2.3-3.2-1.6-5,.9-2.9,3.5-3.5,5.8-2.7,2.8.9,4.3,2.9,3.4,5.8-1,3-3.5,3.4-5.7,2.7-.3,0-.5-.2-.7-.3l1.9-5.9ZM436.7,388.9c1,.3,2,.2,2.4-1s-.3-1.9-1.3-2.3l-1.1,3.4Z"/>
  <path class="st5" d="M429.9,399.3c-.8-.3-1.5-.5-2.3-.6l.8-2.3c.3,0,.6,0,.9.1-.6-.8-.7-1.9-.3-2.8.3-1.6,1.8-2.6,3.4-2.2.1,0,.2,0,.4,0,2,.6,2.4,2.6,1.6,5.2-.1.4-.3,1-.4,1.3l.5.2c.6.2,1.3.2,1.7-1s0-1.4-.6-1.7l.8-2.3c1.5.6,2.5,2,1.6,4.7-.8,2.4-2.1,3.4-4.2,2.7l-3.7-1.2ZM432.4,397.5c0-.2.2-.7.3-1,.5-1.5.2-2.2-.6-2.4-.6-.2-1.3,0-1.5.7,0,0,0,.1,0,.2-.5,1.6.5,2.1,1.7,2.5h.2Z"/>
  <path class="st5" d="M436.8,412.8l-10.1-3.2-2.4-.8.8-2.4c.3,0,.6.1,1,.2-.6-.8-.8-1.9-.3-2.9.7-2.2,3-3.1,5.7-2.2,2.8.8,4.2,3,3.4,5.5-.4,1.3-1.1,1.8-1.5,1.9l4.3,1.4-.7,2.5ZM430.8,404.1c-1.7-.5-2.9-.2-3.3,1-.5,1.7.8,2.3,2.1,2.7,1.5.5,2.7.6,3.2-1,.4-1.3-.4-2.2-2.1-2.8Z"/>
  <path class="st5" d="M432.5,413.7l-.8,2.4-8.8-2.8.8-2.4,8.8,2.8ZM436.2,414.8l-.8,2.5-2.2-.7.8-2.4,2.2.7Z"/>
  <path class="st5" d="M428.8,417.6c.8.2,1.6.5,2.2.7l-.8,2.4c-.2,0-.9-.2-1.1-.3.7.8.9,2,.5,3-.6,1.8-2.1,2.5-4.4,1.8l-5.6-1.8.8-2.4,5.4,1.7c1,.3,1.8.2,2.2-.9s0-1.8-1.6-2.3l-4.9-1.6.8-2.4,6.5,2.1Z"/>
  <path class="st5" d="M422.3,428.7c-1-.5-2.2,0-2.7.9,0,0,0,.1,0,.2-.3.6-.1,1.4.4,1.8l-.8,2.5c-1.7-1.1-2.3-3.2-1.6-5,.9-2.9,3.5-3.5,5.8-2.7,2.8.9,4.3,2.9,3.4,5.8-1,3-3.5,3.4-5.7,2.7-.2,0-.5-.2-.7-.3l1.9-5.9ZM422.7,432.6c1,.3,2,.2,2.4-1s-.3-1.9-1.3-2.4l-1.1,3.4Z"/>
  <path class="st5" d="M418.1,437.6c-.8,0-1.5.5-1.6,1.3-.3.9,0,1.3.5,1.5s.9-.1,1.6-1.3c1.6-2.7,2.7-2.8,3.9-2.4s2.4,1.8,1.5,4.5-2.6,3.1-3.8,2.8l.7-2.3c.4,0,1,0,1.4-1.1.3-.8,0-1.2-.4-1.3s-.7,0-1.5,1.4c-1.6,2.7-2.8,2.8-4.1,2.4-1.5-.5-2.4-2-1.6-4.7s2.5-3.4,4.1-3.1l-.8,2.4Z"/>
  <path class="st5" d="M415.3,446.3c-.8,0-1.5.5-1.6,1.3-.3.9,0,1.3.5,1.5s.9-.1,1.6-1.3c1.6-2.6,2.7-2.8,3.9-2.4s2.4,1.8,1.5,4.5-2.6,3.1-3.8,2.8l.8-2.3c.3,0,1,0,1.4-1.1.3-.8,0-1.1-.4-1.3s-.7,0-1.5,1.4c-1.6,2.7-2.8,2.8-4.1,2.4s-2.4-2-1.6-4.7,2.5-3.4,4.1-3.1l-.8,2.3Z"/>
  <path class="st6" d="M258.6,154.8c.4,1.2,1.8,1.9,3,1.5,1.5-.2,2.1-.9,1.9-1.8s-.8-1.4-3.1-1.7c-3.7-.4-4.7-1.5-4.9-3.3-.3-2.2,1.2-4,4.3-4.5,3.5-.5,5.1,1.2,5.5,3.1l-2.8.4c-.2-.8-.8-1.6-2.5-1.4-1.1.2-1.8.7-1.6,1.6s.7,1.2,2.9,1.4c3.9.4,4.9,1.7,5.2,3.5.3,2.4-1.3,4.2-4.7,4.7s-5.3-1-5.9-3.3l2.8-.3Z"/>
  <path class="st6" d="M268.7,157.3l-.4-3.4,2.9-.4.4,3.4-2.9.4Z"/>
  <path class="st6" d="M238,150.4l2.3,7.5c.8,2.4,2.2,2.7,3.6,2.3,1.6-.5,2.2-1.6,1.5-3.9l-2.3-7.5,2.7-.8,2.3,7.3c1.3,4.3-.8,6.2-3.6,7s-5.6.5-6.9-3.7l-2.3-7.4,2.7-.9Z"/>
  <path class="st6" d="M251.5,159.9l-1-3.2,2.8-.9,1,3.2-2.8.9Z"/>
  <path class="st6" d="M281,153.1l-1.3,2.9-2.8-.2,5.6-12.7,3.6.3,3.5,13.4-3-.2-.8-3.1-4.8-.4ZM285.4,151.1c-.7-2.8-1.1-4.7-1.3-5.9h0c-.4,1.3-1.3,3.3-2.2,5.6l3.6.3Z"/>
  <path class="st6" d="M291.6,150c0-1,.1-1.8.2-2.7l2.7.2c0,.2,0,1.2,0,1.7.6-1.2,2-1.9,3.4-1.7l-.2,2.6c-2-.2-3.2.2-3.4,2.9l-.4,4.3-2.7-.2.5-7.2Z"/>
  <path class="st6" d="M299.5,150.8c.1-.8.3-1.7.4-2.5l2.6.4c0,.4,0,.8,0,1.2.7-.8,1.9-1.2,2.9-.9,1.1.1,2,.9,2.2,1.9.8-.9,2.1-1.2,3.2-1,1.7.3,2.9,1.6,2.5,4.1l-1.1,6.4-2.6-.4,1-6.1c.1-.9,0-1.8-1.1-2s-1.7.5-2,2l-.9,5.6-2.6-.4,1-6c.2-1,0-1.9-1.1-2.1s-1.7.4-2,2.1l-.9,5.4-2.7-.4,1.2-7.3Z"/>
  <path class="st6" d="M318.1,152.1c0,3.6-.2,6.7-.3,7.6h0c.5-.9,1.7-2.8,4.1-6.4l2.6.8-6.3,8.6c-1.8,2.4-2.8,3-5,2.2-.4-.1-.8-.3-1.2-.5l.7-2.1c.2,0,.4.2.7.2.8.4,1.8,0,2.2-.8l-.3-10.8,2.8.9Z"/>
  <g class="st4">
    <text class="st3" transform="translate(246.2 424)">
      <tspan x="0" y="0">SOLDIER</tspan>
    </text>
    <text class="st3" transform="translate(204.1 440.8)">
      <tspan x="0" y="0">READINESS SYSTEM</tspan>
    </text>
  </g>
  <path class="st6" d="M162.3,242.4l-1.4,6h6.5l1.4-6h-2l.9-3.9h10.1l-1,3.9h-1.9l-3.9,17h2.5l-.9,3.9h-10.7l.9-3.9h2.1l1.6-7.1h-6.4l-1.6,7.1h2.2l-.9,3.9h-10.8l.9-3.9h2.2l3.9-17h-2.3l.9-3.9h10.8l-.9,3.9h-2.2Z"/>
  <path class="st6" d="M194.6,253.2c0,1.9-.5,3.8-1.4,5.4-.9,1.6-2.2,2.9-3.8,3.8-1.6.9-3.4,1.4-5.3,1.4-1.4,0-2.7-.3-3.9-.9-1.1-.6-2-1.4-2.7-2.5-.7-1.2-1-2.5-1-3.8,0-1.9.4-3.8,1.3-5.4,1.8-3.4,5.4-5.6,9.3-5.6,1.3,0,2.7.3,3.9,1,1.1.6,2,1.5,2.7,2.7.7,1.2,1,2.6,1,4ZM184.4,259.9c1,0,2-.4,2.6-1.2.8-.8,1.3-1.8,1.7-2.9.4-1,.5-2.1.6-3.2,0-.8-.2-1.6-.7-2.3-.5-.6-1.2-.9-1.9-.9-1,0-2,.4-2.6,1.2-.7.8-1.3,1.8-1.6,2.9-.3,1-.5,2.1-.5,3.2,0,.8.2,1.6.7,2.2.4.6,1.1,1,1.9.9h0Z"/>
  <path class="st6" d="M205.3,259.6l-.8,3.7h-9.5l.8-3.7h1.9l4-17.4h-2.5l.9-3.7h7.7l-4.8,21.1h2.3Z"/>
  <path class="st6" d="M218.4,259.6l-.8,3.7h-9.5l.8-3.7h1.9l2.2-9.9h-2.3l.8-3.7h7.6l-3.1,13.6h2.4ZM220.5,240.9c0,.8-.3,1.5-.9,2-.5.6-1.3.9-2.1.9-.8,0-1.5-.3-2-.9-1.1-1.1-1.1-2.9,0-4.1.5-.6,1.3-.9,2-.8.8,0,1.5.3,2.1.8.5.5.8,1.3.8,2.1Z"/>
  <path class="st6" d="M235,246.9l.2-.9h3.7l-1.2,5.1h-3.5c-.2-.6-.6-1.2-1.1-1.5-.6-.4-1.3-.5-2-.5-.6,0-1.2.1-1.8.4-.5.2-.8.6-.8,1.1,0,.4.3.7.8,1,.9.4,1.8.7,2.8.9,1.6.3,3,1,4.3,1.9,1,.9,1.5,2.1,1.4,3.4,0,1.7-.8,3.3-2.2,4.2-1.8,1.1-3.8,1.6-5.8,1.5-1.7,0-3.4-.3-4.8-1.1l-.2,1h-3.8l1.4-5.9h3.4c.4,1.9,1.7,2.9,4,2.9,2.3,0,3.4-.6,3.4-1.7,0-.5-.3-.9-.8-1.1-1-.4-2-.7-3.1-1-1.5-.3-2.9-.9-4.1-1.9-.9-.9-1.4-2.1-1.3-3.4,0-1.6.7-3,2-3.9,1.6-1,3.4-1.5,5.3-1.4,1.4,0,2.8.3,4.1,1.1Z"/>
  <path class="st6" d="M253.2,246l-.8,3.7h-3.4l-1.9,8c0,.5-.1.9-.1,1,0,.6.4,1,1.1,1,.9,0,1.8-.4,2.5-.8l-.9,4c-1.4.7-2.9,1-4.4,1-1,0-2-.3-2.8-.9-.7-.7-1.1-1.6-1-2.6,0-1,.2-1.9.4-2.9l1.8-7.7h-2l.9-3.7h2l.6-2.5,6.3-4.4-1.6,6.9h3.3Z"/>
  <path class="st6" d="M262.5,259.6l-.8,3.7h-9.5l.8-3.7h1.9l2.2-9.9h-2.2l.8-3.7h7.6l-3.1,13.6h2.3ZM264.6,240.9c0,.8-.3,1.5-.9,2-.5.6-1.3.9-2.1.9-.8,0-1.5-.3-2-.9-1.1-1.1-1.1-2.9,0-4.1.5-.6,1.3-.9,2-.8.8,0,1.5.3,2.1.8.5.5.8,1.3.8,2.1Z"/>
  <path class="st6" d="M279.9,247.2l.3-1.1h3.9l-1.5,6.5h-3.9c0-1.4-1.1-2.5-2.5-2.5-.1,0-.3,0-.4,0-.9,0-1.8.3-2.5.9-.7.7-1.3,1.5-1.6,2.4-.4.9-.5,1.9-.5,2.9,0,.9.3,1.7.8,2.4.5.6,1.3,1,2.2.9,1.7,0,3.2-1.1,4-2.6l3.8,1.9c-1.6,3.1-4.8,5-8.3,4.9-1.4,0-2.9-.3-4.1-.9-1.2-.6-2.1-1.5-2.8-2.7-.7-1.2-1-2.6-1-4,0-1.8.4-3.5,1.3-5.1.9-1.6,2.1-2.9,3.7-3.8,1.5-.9,3.3-1.4,5-1.4,1.5,0,2.9.4,4.2,1.3Z"/>
  <path class="st6" d="M307.1,242.4l-1.4,6h6.5l1.4-6h-1.9l.9-3.9h10.1l-1,3.9h-1.8l-3.9,17h2.5l-.9,3.9h-10.7l.9-3.9h2.1l1.6-7.1h-6.5l-1.6,7.1h2.2l-.9,3.9h-10.8l.9-3.9h2.2l3.9-17h-2.3l.9-3.9h10.8l-.9,3.9h-2.2Z"/>
  <path class="st6" d="M339.8,253.3c0,.8,0,1.6-.2,2.4h-12.2c0,.4-.1.7-.1,1.1,0,.9.3,1.8.9,2.5.6.7,1.5,1,2.4,1,1.5,0,2.9-.9,3.5-2.2l3.9,1.7c-.8,1.3-2,2.3-3.3,2.9-1.4.7-2.9,1-4.5,1-2.1.1-4.2-.6-5.7-2-1.5-1.4-2.2-3.4-2.1-5.5,0-1.8.4-3.6,1.2-5.3.8-1.6,2-3,3.5-3.9,1.6-1,3.4-1.5,5.3-1.5,1.4,0,2.7.3,4,.9,1.1.6,2.1,1.6,2.7,2.7.7,1.3,1,2.7,1,4.1ZM334.9,252.1c0-.8-.2-1.6-.7-2.2-.5-.6-1.3-.9-2-.8-2,0-3.4,1.3-4.2,3.9h6.8c0-.3,0-.5,0-.8h0Z"/>
  <path class="st6" d="M360.5,250.9c0,.6-.1,1.3-.3,1.9l-1.6,6.8h2.9l-1.1,3.7h-8l.3-1.4c-1.4,1-3,1.5-4.7,1.6-1.4,0-2.7-.4-3.7-1.3-1-.9-1.5-2.1-1.5-3.4-.1-1.9.8-3.7,2.4-4.8,1.9-1.1,4.1-1.7,6.3-1.6.8,0,1.5,0,2.2.2l1.1.3c0-.2.1-.5.2-.8,0-.3.1-.6.1-1,0-.6-.3-1.2-.9-1.5-.7-.4-1.4-.6-2.2-.6-1.4,0-2.8.4-4,1.1l-2.6-2.6c2.3-1.3,4.9-2,7.5-2,1.9,0,3.7.4,5.3,1.3,1.4.8,2.2,2.4,2.1,4ZM349.9,260.2c1.3-.1,2.6-.7,3.7-1.5l.6-2.8c-.9-.2-1.7-.4-2.6-.4-.9,0-1.8.2-2.6.7-.7.4-1.1,1.2-1.1,2,0,.5.2,1,.6,1.4.4.4.9.6,1.5.6Z"/>
  <path class="st6" d="M373.6,259.6l-.8,3.7h-9.5l.8-3.7h1.9l4-17.4h-2.5l.9-3.7h7.7l-4.8,21.1h2.4Z"/>
  <path class="st6" d="M389.7,246l-.8,3.7h-3.4l-1.9,8c0,.5-.1.9-.1,1,0,.6.4,1,1.1,1,.9,0,1.8-.4,2.5-.8l-.9,4c-1.4.7-2.9,1-4.4,1-1,0-2-.3-2.7-.9-.7-.7-1.1-1.6-1-2.6,0-1,.2-1.9.4-2.9l1.8-7.7h-2.1l.9-3.7h2l.6-2.5,6.3-4.4-1.6,6.9h3.4Z"/>
  <path class="st6" d="M406.2,245.8c1,0,2.1.4,2.8,1.1.7.8,1.1,1.9,1,3,0,.5,0,1-.2,1.5-.1.5-.2.9-.2,1.1l-1.7,7h2.3l-.8,3.7h-7.6l2.5-10.7c0-.4.2-.7.2-1.1,0-.4,0-.8-.3-1.1-.2-.3-.6-.4-.9-.4-1,0-2.3.7-3.9,2l-1.7,7.6h2.3l-.8,3.7h-9.5l.8-3.7h1.9l4-17.3h-2.3l.9-3.7h7.6l-2.3,9.7c1-.8,2.2-1.4,3.4-1.9.8-.3,1.7-.5,2.6-.5Z"/>
  <path class="st6" d="M199.8,289c0,.6-.1,1.3-.3,1.9l-1.6,6.8h2.9l-1.1,3.7h-8l.3-1.4c-1.4,1-3,1.5-4.7,1.6-1.4,0-2.7-.4-3.7-1.3-1-.9-1.5-2.1-1.5-3.4-.1-1.9.8-3.7,2.4-4.8,1.9-1.1,4.1-1.7,6.3-1.6.8,0,1.5,0,2.2.2l1.1.3c0-.2.1-.5.2-.8,0-.3.1-.6.1-1,0-.6-.3-1.2-.9-1.5-.7-.4-1.4-.6-2.2-.6-1.4,0-2.8.4-4,1.1l-2.6-2.6c2.3-1.3,4.9-2,7.5-2,1.9,0,3.7.4,5.3,1.3,1.4.8,2.2,2.4,2.1,4ZM189.2,298.3c1.4-.1,2.6-.6,3.7-1.5l.6-2.8c-.9-.2-1.7-.4-2.6-.4-.9,0-1.8.2-2.6.7-.7.4-1.1,1.2-1.1,2,0,.5.2,1,.6,1.4.4.4.9.6,1.4.6Z"/>
  <path class="st6" d="M222.6,287.9c0,.4,0,.7,0,1.1,0,.4-.2.9-.3,1.6l-1.6,7.1h2.4l-.8,3.7h-7.6l2.5-10.9c0-.3.1-.6.1-.9,0-.4,0-.8-.3-1.1-.2-.3-.6-.4-1-.4-.9,0-2.2.6-3.9,1.9l-1.8,7.7h2.2l-.8,3.7h-9.4l.8-3.7h1.9l2.2-9.9h-2.6l.8-3.7h7.8l-.5,2.2c1-.8,2-1.4,3.1-1.8,1-.4,2.1-.5,3.2-.5,1,0,2,.4,2.6,1.1.7.8,1.1,1.9,1,3Z"/>
  <path class="st6" d="M244.9,297.7l-.8,3.7h-7.6l.5-2.1h0c-1.3,1.4-3.1,2.3-5.1,2.4-1.7,0-3.3-.7-4.3-2.1-1.1-1.6-1.7-3.6-1.6-5.6,0-1.7.4-3.3,1.1-4.9.7-1.5,1.8-2.9,3.2-3.9,1.4-1,3-1.5,4.7-1.5,1,0,2,.2,2.8.7.9.6,1.6,1.3,2.2,2.2l1.4-6.3h-2.6l.9-3.7h7.8l-4.8,21.1h2.4ZM234,297.4c.9,0,1.7-.3,2.3-.9.7-.6,1.3-1.5,1.7-2.4.4-.9.6-1.9.6-2.9,0-.8-.3-1.7-.8-2.4-.5-.7-1.4-1.1-2.2-1.1-.9,0-1.7.4-2.3,1-.7.7-1.2,1.5-1.5,2.5-.3.8-.5,1.7-.5,2.6,0,.9.2,1.8.7,2.6.5.6,1.3.9,2.1.9h0Z"/>
  <path class="st6" d="M277.6,284.6l1-4.1h-6.7l-1.4,6.4h5.1l-.9,3.8h-5.1l-1.6,6.8h3.4l-.9,3.9h-12.9l.9-3.9h3.3l3.9-17h-3.6l.9-3.9h21.3l-1.8,8h-4.7Z"/>
  <path class="st6" d="M290.7,297.7l-.8,3.7h-9.5l.8-3.7h1.9l2.2-9.9h-2.3l.8-3.7h7.6l-3.1,13.6h2.4ZM292.8,279c0,.8-.3,1.5-.9,2-.5.6-1.3.9-2.1.9-.8,0-1.5-.3-2-.9-1.1-1.1-1.1-2.9,0-4.1.5-.6,1.3-.9,2-.8.8,0,1.5.3,2.1.8.5.5.8,1.3.8,2.1h0Z"/>
  <path class="st6" d="M305.4,284.1l-.8,3.7h-3.4l-1.9,8c0,.5-.1.9-.1,1,0,.6.4,1,1.1,1,.9,0,1.8-.4,2.6-.8l-.9,4c-1.4.7-2.9,1-4.4,1-1,0-2-.3-2.7-.9-.7-.7-1.1-1.6-1-2.6,0-1,.2-1.9.4-2.9l1.8-7.7h-2l.9-3.7h2l.6-2.5,6.3-4.4-1.6,6.9h3.3Z"/>
  <path class="st6" d="M325,287.9c0,.4,0,.7-.1,1.1,0,.4-.2.9-.3,1.6l-1.6,7.1h2.3l-.8,3.7h-7.6l2.5-10.9c0-.3.1-.6.1-.9,0-.4,0-.8-.3-1.1-.2-.3-.6-.4-1-.4-.9,0-2.2.6-3.9,1.9l-1.8,7.7h2.2l-.8,3.7h-9.3l.8-3.7h1.9l2.2-9.9h-2.6l.8-3.7h7.8l-.5,2.2c1-.8,2-1.4,3.1-1.8,1-.4,2.1-.5,3.1-.5,1,0,2,.4,2.6,1.1.7.8,1.1,1.9,1.1,3Z"/>
  <path class="st6" d="M345.3,291.4c0,.8,0,1.6-.2,2.4h-12.2c0,.4-.1.7-.1,1.1,0,.9.3,1.8.9,2.5.6.7,1.5,1,2.3,1,1.5,0,2.9-.9,3.5-2.2l3.9,1.7c-.8,1.3-2,2.3-3.3,2.9-1.4.7-2.9,1-4.5,1-2.1.1-4.2-.6-5.7-2-1.5-1.4-2.2-3.4-2.1-5.5,0-1.8.4-3.7,1.2-5.3.8-1.6,2-3,3.5-3.9,1.6-1,3.4-1.5,5.3-1.5,1.4,0,2.7.3,3.9.9,1.2.6,2.1,1.6,2.7,2.7.7,1.3,1,2.7,1,4.1ZM340.4,290.2c0-.8-.2-1.6-.7-2.2-.5-.6-1.3-.9-2-.8-2,0-3.4,1.3-4.2,3.9h6.8c0-.3,0-.5,0-.8h0Z"/>
  <path class="st6" d="M360.5,285l.2-.9h3.7l-1.2,5.1h-3.5c-.2-.6-.6-1.2-1.1-1.5-.6-.4-1.3-.5-2-.5-.6,0-1.3.1-1.8.4-.5.2-.8.6-.8,1.1,0,.4.3.7.8,1,.9.4,1.8.7,2.8.9,1.6.3,3,1,4.3,1.9,1,.9,1.5,2.1,1.4,3.4,0,1.7-.8,3.3-2.2,4.2-1.8,1-3.8,1.6-5.8,1.5-1.7,0-3.4-.3-4.8-1.1l-.2,1h-3.8l1.4-5.9h3.4c.4,1.9,1.7,2.9,4,2.9,2.3,0,3.4-.6,3.4-1.7,0-.5-.3-.9-.8-1.1-1-.4-2-.7-3.1-1-1.5-.3-2.9-.9-4.1-1.9-.9-.9-1.4-2.1-1.3-3.4,0-1.6.7-3,2-3.9,1.6-1,3.4-1.5,5.3-1.4,1.4,0,2.9.3,4.1,1.1Z"/>
  <path class="st6" d="M378.8,285l.2-.9h3.7l-1.2,5.1h-3.5c-.2-.6-.6-1.2-1.1-1.5-.6-.4-1.3-.5-2-.5-.6,0-1.3.1-1.8.4-.5.2-.8.6-.8,1.1,0,.4.3.7.8,1,.9.4,1.8.7,2.8.9,1.6.3,3,1,4.3,1.9,1,.9,1.5,2.1,1.4,3.4,0,1.7-.8,3.3-2.2,4.2-1.8,1-3.8,1.6-5.8,1.5-1.7,0-3.4-.3-4.8-1.1l-.2,1h-3.7l1.4-5.9h3.4c.4,1.9,1.7,2.9,4,2.9s3.4-.6,3.4-1.7c0-.5-.3-.9-.8-1.1-1-.4-2-.7-3.1-1-1.5-.3-2.9-.9-4.1-1.9-.9-.9-1.4-2.1-1.3-3.4,0-1.6.7-3,2-3.9,1.6-1,3.4-1.5,5.3-1.4,1.4,0,2.8.3,4,1.1Z"/>
  <path class="st6" d="M257.4,182.5c0-1.9-4.1-1.5-4.1-1.5l1-4.2h15.9l-.8,4.5s-3.7-.2-4.2,1.1-5.2,20.5-5.6,22.2.4,2.2.4,2.2l3-.2-.5,4.8h-15.9l.5-4.5,4.6-.5s1.2-4.9,2.5-10.4l-10.3-.2h-2.8s-1.5,7-1.8,8.7.4,2.2.4,2.2l3-.2-.5,4.8h-15.9l.5-4.5,4.6-.5s5.6-22,5.5-24-4.1-1.5-4.1-1.5l1-4.2h15.9l-.8,4.5s-3.7-.2-4.2,1.1-2.3,8.4-2.3,8.4l-.2.6h12.9s2-8.2,1.9-9Z"/>
  <path class="st0" d="M245.2,195.6"/>
  <path class="st0" d="M255.3,192.9"/>
  <path class="st6" d="M310.4,176.6h24.8l3.2,10.6-4,1.3s-2.3-6-4.9-6.2-7.5,0-7.5,0l-2.1,9.2s1.7.6,2.4.1c1.3-1.1,2.3-2.5,3-4.2h3.6l-3,13.8h-4.3s.6-4.2-.5-4.6c-.8-.2-1.6-.3-2.4-.3l-2,10.1,4.2.4-1.1,4.7h-17.1l1.6-5h4.1c0-.1,5.4-24.2,5.4-24.2-.2-.5-.6-.8-1.1-.7-.9,0-3.5-.2-3.5-.2l1.4-4.8Z"/>
  <path class="st6" d="M300.3,190.2c-1.5,4.7-18.7,14.4-18.7,14.4,0,0,9.1,0,10.7-.3s2.1-4.1,2.1-4.1h5.3l-4.6,12.2-3.6.2-.2-.9h-22.9l.5-4.6s21.5-14.9,23.4-16.9,1-8.8-6.3-8.5-8.3,8.8-8.3,8.8h-5.2c-.2-6.9,4.9-12.8,11.7-13.8,0,0,17.5-1.9,17.3,10.5,0,0-.5,1.9-.6,2.2-.1.3-.3.6-.5.9Z"/>
  <path class="st2" d="M261.7,317.3c-.3.2-.3.6,0,2.6.2.8.3,1.7.4,2.5.3,2,.7,4,1.3,5.9.8,1.8,1.2,6.1.7,6.7-.1.1-.2.3-.3.5,0,.2-.2.2-.6.3-.4,0-.7.2-1,.4-.5.4-.7,1.1-.5,1.7.3.5.2.8-.7,2.1l-.9,1.3v1.9c0,2.2.2,2.5,1.2,2.8.5.2.9.4,1.3.7.4.3,1,.7,1.3.8.5.3.7.6.5,1-.1.2,0,.4.3,1,.2.3.3.7.4,1.1q0,.3-.1,0c-.1-.3-.2-.3-.4-.2-.7.4-1.3.8-1.8,1.3,0,0,.1.3.4.5l.4.4-.4,1c-.2.6-.3,1.2-.4,1.8,0,.7,0,.8.6,1.5,1,1.2,1,1.5.4,2.9-.8,1.8-.8,2,0,3l.7.8v1.9c0,.8-.2,1.5-.3,2.2-.3,1.3-.5,2.6-.6,4,0,.6,0,1.2.2,1.7,0,.5.3.8.8,1,.7.4.9.9,1.2,3.4.2.9.2,1.8,0,2.7,0,.8-.1,1.6-.1,2.5-.1.8,0,1.7.3,2.4.1.4.4.7.7.9.5.2.7.8.6,1.8,0,.7-.3,1.3-.8,1.8-.2.2-.3.5-.4.8v.4c-.1,0-3.2.1-3.2.1-2.8.1-3.2.1-3.4-.1-.5-.3-1-.3-1.5,0-1.8.3-3.7.5-5.6.5h-2.1c0,0-.2-.6-.2-.6-.2-.4-.4-.8-.7-1.1-.7-.8-1-1.8-.9-2.8,0-.7,0-.8.4-1,1-.5,1.1-2.6.4-4.5-.7-1.8-1-3.7-.9-5.6,0-1.7.2-3.3.8-4.8l.4-1.4-.2-.9c-.3-.8-.3-1.7,0-2.6.3-.8.3-1.4,0-1.4s-.5-.5-.3-1.1.3-.6.3-.2.3.7.9.9c.3.1.4,0,.8-.2.2-.2.4-.3.6-.4.3,0,.3-.2.7-2.1.2-1.1.4-1.5.5-1.5.3,0,.6-.6.6-1.5s0-.8.4-1c.5-.1.7-.6.6-1.1,0,0,0,0,0-.1-.1-.6-.1-1.3,0-1.9.1-.8.3-2.2.4-3.1,0-.8.2-1.5.5-2.2.4-.8.4-1-.1-2.4-.2-.6-.4-1.3-.5-2,0-1.1-.4-2.2-.9-3.1-.2-.3-.5-.6-.9-.7-.9-.3-1.8-.8-2.5-1.4-.4-.6-1-1-1.6-1.1-.5,0-.6-.3-.4-1.2.3-1.3,1.3-2.5,2.1-2.5s.6-.2.3-1.5-.2-1.5.1-1.5.8-.7.8-1.4c0-1.1-.6-1.5-2.4-1.8-1.3-.2-2.7-.8-2.7-1.1,0-.6-1.4-.8-1.7-.3-.3.4-.7.7-1.1.9-1,.7-1.7,1.5-1.7,2,0,.3,0,.5.2.8.1.6,0,1.3-.1,1.9-.2.8-.3,1.4-.3,1.5.2.2.4.4.6.6,1.3.9,1.6,2.7.6,4,0,0,0,0,0,0-.3.6-1,1-1.7.9-.6,0-1.1.3-2.9,1.8-1.1,1-1.7,1.3-1.8,1.1-.4-.8-.7-1.5-.8-2.4,0-.2.1-.3.2-.4.2-.1.2-.3.1-.9s0-.7.2-.9.4-1.3,0-2.1c-.2-.4-.4-.9-.5-1.4-.3-1.1-.4-1.2-1.1-1-.4.1-.7.1-.8,0-.2-.3-.3-.7-.3-1-.1-.5-.4-1.5-.6-2.3-.2-.6-.3-1.2-.4-1.8,0-.4-.1-.8-.3-1.1-.3-.6-.3-.8-.1-1.1s0-.6-.9-.6h-.7l-.8-2.5c-.8-2.5-1.1-3.2-1.5-3s-.2.7.5,2.4c.5,1.2.8,2.4,1,3.7,0,.2-.1.3-.4.5s-.5.3-.5.3.2.7.5,1.4c.2.4.3.9.4,1.3-.2,0-.4.2-.7.2-.7.2-.9.5-.8.9,0,.2.3.2.9.2.4,0,.9,0,1.3.2.2.1.4.2.6.1.3-.2.3.8,0,3-.1.9-.2,1.9-.2,2.2v.7l.2-.7.2-.7.2.7c0,.4.2.7.2,1.1,0,.5-.7,1.9-.9,1.9s-.4.8-.4,2.6c0,1.4.2,2.8.8,4.1.2.4.6,1.6,1,2.7l.7,2v1.9c0,0-.2,1.9-.2,1.9l.6.6c.4.3.8.7,1.3.9l.7.3v.6c-.3.5-.3.6,0,.8l.3.3-.5,1.8c-.5,1.7-1.1,4.9-1.5,6.7-.1.5-.3,1-.5,1.5-.3.4-.4,1-.3,1.5,0,1.1.2,2.3.6,3.4.5.9.3,2.3-.4,4.2-.2.6-.5,1.3-.9,1.8-.2.3-.3.6-.2.9,0,.9-.2,1.9-.5,2.7l-.6,2.2.5.4c.2.2.4.3.6.4.2,0,0,.8-.2,1.5-.4.9-1.1,1.6-2,2-.7.2-1.3.7-1.5,1.5v.6h-1.8c-.7,0-1.4,0-2.1-.2-.4-.2-.9-.2-3.5-.2-1.1.1-2.3,0-3.4-.1-.2-.1-.4-.2-.6,0-1.1.2-2.2.3-3.4.3-.5-.2-.7-1.1-.7-3.1v-2c0,0,1.1-.4,1.1-.4,1.3-.5,1.4-.6,2-3.1l.4-1.6-.2-1.1-.2-1.1.4-1c.1-.4.3-.7.6-1,0,0,.2-.2.2-.4.2-.4.5-.8.9-1.1.7-.8.7-1,.7-1.7,0-.4,0-.8.2-1.2.2-.4.2-.8,0-1.1-.6-1.5-1.3-3-2.2-4.3-.3-.4-.6-.8-.8-1.3-.6-1.1-3-2.9-3.7-2.9s-1-.4-.7-.4.2-.3,0-.3c-.2,0-.4-.2-.5-.4q-.3-.3,0-.7c.3-.3.3-.3,0-.2-.7.3-.8.2-1.3-.2-.2-.2-.4-.3-.7-.4-.3,0-.2-.6.1-1.1.2-.2.2-.5.3-.7,0-.2,0-.3.2-.4.5-.1,1-.1,1.4,0,.1.2.3.2.3,0,0-.5-.2-1-.4-1.5-.3-.9-.5-1.7-.6-2.6-.2-1.6-.4-1.8-1.9-2.5-.4-.2-.8-.4-1.1-.8-.1-.4-.5-.6-.8-.5-.4,0-.8.3-.8.7,0,.1-.3.3-.8.5-.8.2-1.5.5-2.1,1.1-.5,1.7-.9,3.3-1.1,5-.1.8,0,1,.6,1,.4,0,.5.1.5.4s.2.5.7.8.6.5.6.6,0,.3-.2.3-.2.2-.3.4c-.1.4-.2.4-.7.4-.3,0-.6-.2-.8-.4-.3-.6-.6-.8-.9-.8s-.5-.3-1.1-1c-2.8-3.4-5.7-6.7-8.9-9.7-2.5-2.5-4.6-4.7-4.7-4.7-.3-.1,0,.3.9,1.5l1.1,1.4c.2.3,0,.4-.3.1s-.3-.2-.3-.1c.7,1.2,1.5,2.3,2.3,3.4,1.3,1.7,1.2,1.6.9,2.2s-.3.7-.2,2c0,.8.1,1.7.2,1.9s.1.4.2.1.2,0,.4.7c.3,1,.9,1.9,1.4,1.9s.2,0,0-.2-.6-.8-1-2.1c-.2-.6-.5-1.4-.6-1.8-.3-.7-.3-.8,0-1.1.1-.3.2-.6.3-1,0-.3.1-.6.2-.6,1.2,1.1,2.3,2.4,3.4,3.7.5.6.8,1.2,1.1,1.8,0,.3.3,1,.4,1.5.3,1.1,1,3.7,1,4,0,.2-.1.4-.3.6-.2.4-.4.8-.4,1.3,0,.6-.3,1.2-.8,1.5-.8.6-1.3,1.6-1.2,2.6,0,1.3.2,2.6.6,3.9.4.8.1.9-.8.3-1.5-.9-2.6-2.5-3-4.2-.4-2.6-.6-5.2-.7-7.8,0-1.2-.1-2.4-.2-2.7,0-.5-.1-.5-.3.5-.2,1.2-.2,2.5-.2,3.7,0,1.4,0,2.8.3,4.2.6,2.5,1.6,4.8,3.2,6.8l.6.7-.4,1.1c-.5,1.2-.5,2.5,0,3.7.5,1.7.8,2.2,1.6,2.9.3.2.5.4.7.6.7.5,1.5.9,2.3,1.1.6.2,1.1.4,1.6.8.4.3.8.6,1.3.8l.7.3v.7c0,1.1-.4,2.1-1.1,2.9l-.7.8h-2.4c-2.2-.2-2.4-.2-3.2-.6-.9-.5-1.1.8-1.6,1.3-.2.2-.8.3-1.2,1.9-.1.7-.3,1.4-.7,2l-1.1,4h176.7v-3.5c-.1-3-.2-3.6-.5-4.4-.4-1-.3-2.1.1-3,.2-.4.2-1.1.3-7v-6.5l-.8-.3c-.4-.2-.9-.3-1.3-.4-.2,0-.5-.1-.7-.3-.1-.5-.2-.9-.3-1.4-.5-2.5-2-4.8-4.1-6.3-1-.7-1-.7-1.1-1.4,0-.3-.1-.7-.3-1,0-.2-.1-.3-.2-.5.3-.8.7-1.6,1.2-2.3.6-1.1,1.4-2.4,1.6-2.8l.4-.8c.3.1.6.3.8.5.4.3.7.6,1.1.8.9.5,1.1-.3.3-1.1s-.9-1-.5-2.2c.2-.6.3-1.2.3-1.8,0-.8.2-1.1.7-1.1s.3-.1.3-.4.2-.7,1.8-2.5c.4-.3.6-.9.6-1.4,0-.9-.2-1-.6-.2-.5,1-1.1,1.8-1.8,2.6-.4.5-1.2.6-1.8.3-.8-.3-.9-.3-.9.3s0,.5-.4.5c-.3,0-.7.2-1,.4-1.1,1.1-2,2.3-2.7,3.6,0,.4-.2.4-.7,0l-.5-.4-.6.7c-.6.6-.6.7-1,.5s-.4-.3-.5-1.4c-.1-1.5-.3-1.6-1.9-2.1-.9-.2-1.1-.4-1.1-.5s-.1-.2-.5-.3c-.5,0-1.3.1-1.3.3-.3.4-.7.7-1.1,1-.5.4-1,.8-1.4,1.3q-.3.4,0,.8c.3.3.3.4.1.6-.4,1.3-.5,2.6-.6,4,0,1,0,1.1.8,1.4.3,0,.5.3.5.5,0,.2,0,.4,0,.6,0,.2-.1.2-.4,0s-.3-.2-.5.2q-.9,2.3-1.8,3c-1.5,1.1-1.9,1.7-1.9,3,0,.6,0,1.1-.2,1.7-.2.6,0,1.3.3,1.8l.4.9-.3.2c-.3.3-.5.6-.6,1-.2.4-.4,1.2-.6,1.6-.2.4-.2.8-.3,1.3,0,.5.1.4.4-.5v-.5c.1,0,.6,1,.6,1,.5,1,1,1.5,1.6,1.5s.2.3-.6.7c-1.2.5-2.1,1.5-2.6,2.7-.3.6-.2,1.3.1,1.9.3.3.6.5.9.8.7.5,1.4,1.1,2,1.8-.3.6-.7,1.2-1.1,1.8-.2.2-.6.1-.9-.1s-.2-1.2,0-1.3.2,0,0-.3-.9-.3-.9-.1c0,.2.1.4.2.5.2.5.3.5-.8,0-.5-.2-.7-.4-.4-.4s.1,0,0-.3,0-.3,0-.3c.3-.1-.1-.6-.6-.6s-1,.5-1,1.2,0,.5-.2.2c-.2-.2-.3-.5-.4-.8-.1-.2-.2-.4-.4-.6-.1-.1-.2-.3-.2-.4,0-.4-.3-.3-.4,0s-.1.3-.5.2-.4,0-.2.2c.1.2.3.4.5.5.3.1.4.4.4.7,0,.3,0,.5-.1.5-.4-.1-.7-.3-1.1-.4-1-.5-1.2-.5-.7,0,.4.4.8.9,1,1.4,0,0-.1.1-.2,0-.1,0-.3,0-.3.1,0,.2-.2.1-.6-.2-1.3-1.3-2.2-2.9-2.6-4.7,0-.4-.2-2.2-.2-4-.2-3.9-.7-7.8-1.6-11.6l-.4-2.2.5-.5c.5-.5.5-.5.7-.2.2.5.3,1.1.2,1.6v1.4l.5.7c.3.3.6.6.7.6.3,0,.6-.2.8-.3.4-.2.7-.4.8-.7.2-1.1.3-2.1.3-3.2,0-1.2.2-2.5.3-3.7.4-1.3.2-2.6-.4-3.8-.3-.8-.8-2.1-1-2.8-1.4-4.7-3-8.2-4.2-9.3-.4-.3-.8-.6-1.3-.8-1.2-.5-2.2-1.4-2.7-2.6-.1-.4-.2-.6-.4-.5s-.2-.2.1-.7.4-.4.6-.3.3,0,.2-.2c0-.2-.1-.5-.1-.8,0-.5,0-.5,1-.8.3,0,0-1.2-.6-3l-.6-1.6-.8-.4c-.7-.3-1.4-.5-2.2-.4-2.2,0-3.1.4-3.9,2.1-.4.7-.6,1.5-.6,2.3,0,.5,0,1,0,1.5.2.2.4.3.7.4.5.2.5.2.5.7s0,.5.2.4c.2,0,.3,0,.4.2,0,0,0,0,0,0,.2.3,0,.4-.5.4s-.8.1-.9.7c0,.3-.2.5-.5.5s-.6.1-.8.2c-.1,0-.3,0-.4.1,0-.2-.2-.3-.3-.4-.2-.2-.2-.6-.2-.9,0-.3,0-.6,0-.9,0-1.7,0-3.5.1-5.2.3-.9.3-1.8,0-2.7-.2-.7-.3-1-.6-1.1-.7-.4-.8-1-.9-3.9,0-2.3-.1-2.7-.3-2.7-.1,0-.3,0-.3.2,0,.1,0,1.6-.1,3.4,0,1.2,0,2.4-.2,3.6-.2.3-.2,1.2-.2,4.4,0,3.9,0,4-.3,5-.2.7-.3,1.4-.4,2.1,0,.8-.2,1.5-.4,2.2-.3,1-.4,1.2-1,1.7-.4.4-.8.9-1.1,1.4-.4.8-.6,1.7-.5,2.6,0,1.8.2,2.5,1,3.4.5.6,1.3.9,2.1.8q.7,0,.7.4c0,.2,0,.5,0,.7,0,.2-.2.1-.4-.3-.4-.7-.2,0,.3.9s1.6,2.1,2.3,2.1.4,0-.2.9c-.6.9-1,1.9-1.4,2.9,0,.2,0,.3.1.5.6,1.6.6,3.4.1,5-.6,2.3-.5,4.8.2,7.1.3.7.3,1,.3,3.7,0,2.9,0,3-.4,4.2-.3.7-.4,1.5-.3,2.2,0,1.3.3,1.8,1,2.2,1,.6,1,.7,1,1.7s-.3,1.8-.9,2c-1,0-1.9,0-2.9,0-2.4-.1-2.6-.2-2.6-.7,0-.3-.1-.2-.5.2s-.4.4-1.6.3c-.5,0-1.1-.1-1.6-.2-.6,0-1.2-.1-1.7,0-1.4,0-1.4,0-1.6-.3-.4-.8-.6-1.7-.5-2.6,0-.6,0-.8.3-.9.3-.1.5-.3.7-.6.2-.2.3-.3.5-.4.2,0,.4-.2.5-.3.4-.4.4-.4.4-2.1,0-1.1-.1-2.3-.3-3.4-.3-1.3-.4-2.7-.2-4.1l.2-2.4.6-1.2c.4-.6.7-1.4.6-2.2,0-.7-.2-1.4-.5-2-.5-1.2-.5-1.3.5-1.6,1.1-.2,1.8-1.1,1.9-2.2,0-.5.3-.9.7-1.2l.6-.6v-.9c-.2-.8,0-1.6.4-2.2.3-.6.5-1.3.6-1.9,0-1.7-.1-3.3-.5-5-.2-.8-.2-1.6-.3-2.5,0-1-.2-2-.5-2.9-.2-.7-.5-1.4-.8-2.1-.4-.4-.7-.9-1-1.4-.5-.9-1.3-1.6-2.2-2.1-.3-.1-.5-.3-.8-.6-.2-.2-.5-.4-.8-.4-.3,0-.5,0-.8-.2-.2-.1-.5-.3-.8-.3-.6-.2-1-.8-1-1.9,0-.5.1-1.1.5-1.4.4-.3.6-.8.6-1.3v-.6c.1,0,.9,0,.9,0,.3,0,.5,0,.8,0-.4-1.1-.8-2.2-1.3-3.2-1-2.1-1.4-2.5-2.9-2.7-.3,0-.6-.2-.7-.6,0-.3-.3-.5-.6-.5-.4,0-.4,0-.4.5s0,.6-.8.8c-.4.1-.7.3-1,.5-.6.8-1,1.8-1.1,2.8-.1.7-.3,1.5-.4,1.8-.2.8-.1,1.1.4,1.1s.5,0,.6.3c.1.3.3.6.5.9.7,1,.8,2.3.3,3.4-.2.2-.2.2-.6,0l-.4-.3v.3c.3.6.3.9,0,1.1-.9.5-1.8.8-2.8,1.1,0-.3,0-.5.2-.7.4-.7.3-1.6-.2-2.3-.3-.4-.4-.7-.3-.9,0-.1,0-.3,0-.4,0-.1,0-.3,0-.4,0-.8,0-1.7,0-2.6-.1-1,0-2.1.1-3.1.4-1.3.2-2.8-.4-2.9-.2,0-.4-.2-.4-.3,0-.1,0-.2-.2-.3-.2,0-.2-.6-.2-3,0-2.8,0-2.9-.3-2.9s-.3.1-.4,2.9c0,1,0,2-.2,3.1-.2.3-.4.2-.4-.3s-.2-.7-.6-.6h-.4v4.4h1.1v1.7c0,.8,0,1.6-.2,2.3-.3,1-.5,2-.7,3-.5,1.9-1.1,3.7-1.8,5.5-.2.4-.6,1.5-1.1,2.5-.9,2-1,2.7-.6,3.6.2.5.6.9,1.1,1,.4.2.8.4,1.2.7l.4.4-.5.6c-.6.7-.6.9.1.4s1.1-.4,1.1.5c0,1.5,1.3,2.8,2.4,2.6.4,0,.4,0,.3.2-.2.4-1.9,7.5-2.1,8.7-.2.9-.5,1.9-.9,2.8l-.6,1.6v1.7c.1,1.6,0,3.3-.2,4.9-.2,2.2-.3,2.7-1,3.5-.2.3-.3.6-.3.9,0,.6-.1,1.2-.2,1.8-.1.8-.2,1.6-.2,2.4v1.1l.7.7c.6.6.7.7.6,1-.4.6-1,1-1.7,1.1-.4,0-.8.2-1.1.4l-.4.3-.5-.5c-.3-.3-.7-.5-1.1-.7-1-.4-1.8-1.1-2.4-1.9-.5-.8-.5-1.1.1-1.8l.5-.6v-2.2c-.2-1.1-.3-2.2-.6-3.2-.7-2.1-.8-5.1-.3-6.1.4-1.2.4-2.5,0-3.7-.1-.6-.2-1.2-.3-1.8,0-.5-.2-1-.3-1.5-.3-1.3-.3-1.6.3-1.6.3,0,.5-.1.8-.2l1.2-.5c1-.4,1.2-.8,1.2-3,0-2.4-.3-4.8-.8-7.1-.3-1.6-.4-1.8-.2-2.1.4-.3.5-.9.2-1.3-.5-1.4-1.2-2.7-1.9-4-.3-.4-.6-.9-.8-1.3-.6-.9-1.5-1.6-2.5-1.9-.7-.2-1.4-.4-2-.8-.8-.4-.8-.6.2-.7.4,0,.8,0,1.1.2q.5.3.3,0c-.1-.3-.8-.6-1.8-.5-.3,0-.7,0-1,0-.2,0-.3-1.2-.1-1.6s.3-.3.3,0,0,.2.1.1.1-.3.1-.5c0-.5.3-.8,1-1,.3,0,.5-.2.7-.5,0-1.3-.2-2.6-.6-3.9-.2-.5-.3-1-.4-1.6v-.6c0,0-1.1-.4-1.1-.4-2.2-.8-3.4-.8-5.2,0-1.1.6-1.3.8-1.1,1.6.2.9.2,1.9,0,2.8-.2.3-.2.3-.4,0-.4-1-.7-2.1-.9-3.2,0-.4-.2-.9-.3-1.3-.7-1.9-1.2-3.8-1.6-5.8-.1-.6-.1-.9,0-1s0-.9-.5-1.6c-.5-.9-.9-1.9-1.1-2.9-.2-1.2-.5-2.4-.9-3.5-.2-.3-.3-.4-.6-.4-.2,0-.4,0-.6.2ZM231.6,326.9c0,0,0,0-.2,0-.1,0-.2-.2-.2-.3,0,0,0,0,.2,0,0,0,.2.2.2.3h0ZM291.1,330.8q0,.3-.2,0c-.2-.2-.2-.3-.1-.4s.3,0,.3.3ZM316.6,332.8c0,0,0,.1,0,.1,0,0-.2,0-.2-.1h0c.1-.2.2-.1.3,0h0ZM232.1,334.2c0,.2,0,.4-.1.4s-.1-.2-.1-.4,0-.3.1-.3.1.2.1.3h0ZM317.4,335c-.3.3-.4.3-.4-.3v-.5l.3.3c.2.3.3.3.1.5ZM232.8,337.9v.3s-.1-.1-.2-.3,0-.3,0-.3c0,0,.1.1.2.3ZM268.6,340c.5,1,.9,1.8.9,1.9s-.2.1-.4.1c-.7,0-1-.5-1.4-2.2-.2-.9-.3-1.6-.3-1.7,0-.2.3.2,1.2,2ZM266.4,339.7c0,.3.1,1.1.2,1.8v1.2c0,0-.4,0-.4,0-.6.1-1,0-1-.3s-.1-.2-.4-.1c-.5.1-.5,0-.2-1.5.1-.8.3-1.1.5-1.3s.5-.4.7-.5c.4-.3.5-.3.7.6h0ZM231.6,342.4c0,0,0,.2,0,.4s-.2.5,0,1.3c0,.5.1,1.1.1,1.7v.7l-.3-.6c-.5-1.1-.9-4.5-.6-4.8,0,0,.2.2.4.5.1.3.3.5.4.7h0ZM235.3,342.3c.2,1.1.1,1.6-.1,1.7-.4,0-.9-1.9-.5-2.5.2-.3.2-.3.4,0,.1.3.2.6.3.9h0ZM291,342.7c0,.5,0,.7.1.9s.2.3,0,.4c-.2,0-.4,0-.6,0-.3,0-.4-.1-.4-.4,0-.4.1-.8.2-1.2.2-.8.3-.8.4-.5.2.3.2.6.2.9ZM304.2,342.4c.2.1.2.1,0,.1-.2,0-.3,0-.4-.1-.2-.1-.2-.1,0-.1.2,0,.3,0,.4.1h0ZM318.8,344.1c0,.2-.4.5-.5.3,0,0,0-.2,0-.3,0-.3.5-.3.5,0h0ZM326.9,344.3c0,0,0,.2,0,.2s-.7-.1-.7-.3.5-.1.6,0h0ZM317.9,344.6c.1.3-.1.6-.3.4s0-.6.1-.6.1.1.2.2h0ZM235.3,345.4c0,.2-.1.5-.2.5s-.2-.2-.2-.5,0-.5.2-.5.2.1.2.5h0ZM289.8,345.9c0,.9-.2,1.8-.6,2.5-.2.3-.3.6-.4.9,0,.3-.1.6-.2.9-.1.5-.2,1-.3,1.5,0,.5-.1.9-.2.9-.2-.2-.3-.4-.4-.7-.4-.9-.5-2-.3-3,.6-1.2,1.4-2.4,2.3-3.5,0,0,.1.2.2.5h0ZM189.7,348.6c.3.1.4.6.2.6-.3-.1-.5-.3-.6-.6,0-.1.1-.1.4,0ZM362.8,352c0,0-.1.1-.2.1,0,0-.1,0-.1-.1,0,0,0,0,0,0,0,0,.1-.1.2-.1s.2.1.1.1ZM354.5,355.9q0,.2-.2,0c-.2-.1-.2-.2-.2-.2s.1,0,.2,0c.1,0,.2.1.2.2,0,0,0,0,0,0h0ZM250.3,356.9c-.2.3-.4.4-.4.1s.5-.7.5-.5c0,.2,0,.3,0,.5h0ZM358,357.3c-.2.3-.4.3-.4,0s.5-.5.5-.3c0,.1,0,.3-.1.4h0ZM279.3,357.8c.4,1.1.6,2.1.6,3.3v.4l-.3-.3c-.2-.3-.3-.6-.4-.9,0-.3-.3-1-.5-1.5-.2-.4-.3-.7-.3-1.1.1-.2.6-.2.8.2h0ZM306.5,358.3c0,.2.1.5.1.7,0,.3,0,.3-.2.2-.3-.3-.5-.8-.6-1.2,0,0,.1,0,.3,0,.2,0,.4.2.4.4h0ZM360.4,358.5c-.1.2-.2.4-.4.5-.5.4-.6.2-.2-.3.2-.3.6-.4.6-.2h0ZM329.8,359.6c0,0,0,.1,0,.1s-.1,0-.1-.1,0-.1,0-.1c0,0,.2,0,.2,0,0,0,0,0,0,.1h0ZM331,361.2c.2.8.2,1,0,.8-.3-.3-.5-.8-.4-1.2,0-.3.3,0,.4.5h0ZM306.9,361.2c0,.4-.2.7-.4,1-.2,0-.1-.5,0-.9s.5-.3.5-.1h0ZM332,363.7c0,0,0,.1-.1,0,0,0-.1-.1-.1-.2,0,0,0,0,.1,0,.1,0,.2.2.1.3h0ZM280.6,363.9c0,.3-.1.6-.4.6,0,0,0,0,0,0-.2,0-.3-.6,0-.8.1-.1.4-.1.5,0,0,0,0,0,0,.2h0ZM306.9,365.2c0,.5-.4,1.6-.7,1.6s-.2-.2,0-.6c.1-.3.2-.6.2-.9,0-.6.3-.6.4,0h0ZM333.9,368.1c0,.2-.4.5-.6.5s-.1-1.1,0-1.1.6.4.6.6h0ZM272.6,370.7c.1,1,.4,2,.8,2.9.9,2.3,1.5,4.8,1.8,7.2,0,.7.2,1.3.5,1.9.3.7.5,1.3.5,2.1.1,1.1.2,1.4.5,1.6.9.6.9.7.8,1.9s-.3,1.8-.5,1.7c0,0-.1,0-.1.3,0,.8-1.7,1.5-1.9.8-.1-.3-.9-.5-2.1-.6-1.3,0-1.4,0-1.5.4s-.2.3-.3.3-.3-.4-.6-2.2c-.4-2.5-.3-3.1.1-3.5s.6-2.6.4-5.2c-.2-1.2-.1-2.4,0-3.5.1-.9.3-2.9.5-4.5.3-2.8.4-3.7.5-3.6s.2,1,.4,2.1h0ZM242.5,376.8c.3,2.1.6,4.6.7,5.5v1.7c0,0,1,1,1,1,1.3,1.5,1.3,1.5,1.3,4.3v2.4h-.4c-.3,0-.6,0-.9-.2-.4-.2-.5-.2-.9,0s-.8.3-2.6.3c-.7,0-1.5,0-2.2-.1-.9-.1-1.7,0-2.6,0h-.7c0,.1-.2-.9-.2-.9-.4-1.8-.4-2.5-.1-3.2.2-.6.7-1,1.3-1,.5-.1.9-.7.7-1.1-.1-.2-.1-.3,0-.5.2-.6.3-1.2.4-1.9.3-1.6,1.8-7.1,3.5-12.3l.6-2.1.2,2.1c.1,1.2.5,3.8.8,5.9ZM299.1,377.7c.6,1.3.9,2.7.9,4.1.1.8,0,1.6-.2,2.4-.2.4-.2.9-.2,1.3,0,.3,0,.5-.3.6-.7.5-.3,1,1.1,1.3.4.1.7.2.7.3,0,.3-.1.6-.2.9-.1.4-.3,1.3-.4,1.9-.2,1.4-.4,1.8-1,1.7-.2,0-2-.2-4-.3-1.2,0-2.5-.1-3.7-.4-.3-.8-.4-1.7-.4-2.5,0-.4.1-.5.4-.6l1-.3c.6-.2.6-.2.7-.8,0-.3,0-.6-.1-.9-.1-.2-.1-.4,0-.6.1-.2.1-.5,0-1.3-.1-.5-.2-1-.2-1.5,0-.5.6-2.1,1.9-5.5.3-.7.7-1.4,1.1-2,.5-.8,1.3-2.1,1.6-2.8l.7-1.4v2.7c.3,2.5.3,2.8.6,3.5h0ZM325.9,379.3c.4,1.2.8,2.3,1.1,3.5.2,1,.6,2.1,1,3,.2.5.3,1.1.3,1.6,0,.7.1,1.6.2,2,0,.7,0,.8-.1.6-.1,0-.3-.2-.4-.2-.8,0-1,0-1.1,0s0,.2.4.2c.8,0,1.1.1,1.1.6s0,.4-.1.5-.1.3,0,.5c0,.4,0,.4-.4.4s-.5,0-.5.4-.3.5-.4,0c0-.4,0-.4-.7-.3s-.7,0-1-.4-.5-.6-.3.2q.2.6-.1.5c-.2,0-.4-.1-.5-.2-.3-.1-.3.3,0,.6.2.1.2.3.2.3s-.2,0-.3-.2-.3-.2-.4-.1c-.9.2-1.8.2-2.8,0-.2-.1-.2-.5-.3-1.8-.1-2,0-2.3.6-2.3s.8-.2.7-1.1c-.1-3.4,0-6.8.4-10.2,0-.3.4-1.2.8-2.2l.7-1.7.5,1.6c.3.8.9,2.7,1.5,4h0ZM362.5,385.8c0,.5,0,1.1.4,1.5.4.5.4.6.4,1.5,0,1.8-1.3,5.8-1.9,6.1-.3.1-8.3,0-9.7-.1-.8,0-.9-.1-.9-.5,0-.4.2-.8.5-1.1.4-.4.5-1,.5-1.6,0-.5,0-.9-.2-1.4-.1-.3-.2-.6-.1-.6s0-.1-.2-.3-.3-.3-.3-.3c.8-.1,1.7-.2,2.5-.3,2.4-.2,2.5-.3,3.6-.8.7-.4,1.5-.8,2.2-1.3.4-.3.7-.6,1.1-.8,0,0,.2.1.3.2.3.3.4.3.4-.2.2-.5.6-.8,1.1-.9.3,0,.3,0,.3.9h0ZM340.2,386.8c0,0-.1.1-.2.1s-.2,0-.1-.1c0,0,.1-.1.2-.1,0,0,.1,0,.1.1h0ZM209.7,387.6c0,.5-.1,1.1-.3,1.6-.1.6-.3,1.4-.4,1.8v.7h-3.7v-.6c0-.5.1-.8.6-1.5.4-.5.7-1.1,1-1.6l.4-.8h2.3v.4ZM339.7,387.3c0,0,0,.1-.1.1,0,0,0,0,0,0,0,0-.1,0,0-.1s.1-.1.2-.1.1,0,.1.1h0ZM346.1,388.8c.5.3.9.6,1.3.9l.4.4-.5,1.6c-.2.7-.5,1.4-.9,2-.2.2-.3.4-.4.6,0,.2,0,.3-1.1.2-1.5-.1-1.6-.2-.9-.8.2-.2.5-.3.7-.4,0,0,.1-.1.2-.3.2-.4.4-.8.6-1.1.2-.3.4-.6.5-1,0-.3-.3-.2-.6.2-.2.2-.4.3-.6.4-.4,0-.8-.4-.7-.7,0-.2.1-.4.1-.6,0-.3.1-.5.5-.8.6-.4.6-.7.1-.6s-.4,0,0-.9v-.4c.1,0,.3.4.3.4.3.4.6.7,1.1.9h0ZM334.6,389.4c0,0,0,.1,0,.1s-.1,0-.2-.1,0-.1,0-.1c0,0,.2,0,.2,0,0,0,0,0,0,.1h0ZM338,391.2c0,0,0,.1,0,.1,0,0-.2,0-.2-.1,0,0,0,0,0,0,0,0,0-.1,0-.1s.1,0,.2.1h0ZM329.5,392l.4.4h-.3c-.3,0-.4,0-.6-.3-.2-.6,0-.6.5,0h0ZM328.1,392.6c.3.3.3.5,0,.5s-.5-.4-.5-.6.3,0,.5.1h0ZM330.1,392.9c0,0-.2,0-.3,0-.1,0,0,0,0,0s.3,0,.2,0h0Z"/>
  <path class="st2" d="M276.2,390.6c0,0,.1.1.2.1,0,0,.1,0,0-.1,0,0-.1-.1-.2-.1-.1,0-.1,0,0,.1Z"/>
  <path class="st2" d="M230.8,339c0,.2,0,.3,0,.2,0-.1,0-.2,0-.3,0,0,0,0,0,.2Z"/>
  <path class="st2" d="M366,348.2c0,.1,0,.2,0,.3s.3,0,.2-.3-.1-.2-.2,0Z"/>
</svg>