<svg width="1024" height="1024" viewBox="0 0 1024 1024" fill="none" xmlns="http://www.w3.org/2000/svg">
<rect width="1024" height="1024" fill="white"/>
<rect width="1024" height="1024" fill="black"/>
<path d="M804.673 396.903H588.444L521.718 191.225L454.992 396.903H238.614L413.678 524.114L346.951 729.792L522.015 602.729L697.079 729.792L630.055 524.114L804.822 396.903H804.673ZM521.569 539.57L443.697 596.19L473.419 504.646L395.547 448.025H491.847L521.718 356.481L551.44 448.025H647.74L569.868 504.646L599.59 596.19L521.867 539.57H521.569Z" fill="#FFCC01"/>
<path d="M285.872 809.001H305.935V883.158C305.935 895.345 297.464 902.775 284.98 902.775H259.568C246.936 902.775 238.614 895.493 238.614 883.158V809.001H258.973V880.781C258.973 882.564 260.311 883.902 262.094 883.902H282.751C284.535 883.902 285.872 882.564 285.872 880.781V809.001ZM314.703 882.267H334.765V902.626H314.703V882.267ZM343.533 840.953V826.24C343.533 816.432 350.667 809.001 361.812 809.001H391.386C402.532 809.001 409.665 816.283 409.665 826.24V839.913H390.346V829.956C390.346 828.172 389.008 826.835 387.225 826.835H366.271C364.487 826.835 363.15 828.172 363.15 829.956V839.021C363.15 840.358 363.893 841.547 366.122 842.29L396.885 851.207C406.544 854.179 409.814 859.083 409.814 869.635V885.388C409.814 895.196 402.532 902.626 391.386 902.626H361.812C350.815 902.626 343.682 895.047 343.682 885.388V870.229H363.001V881.672C363.001 883.456 364.339 884.793 366.122 884.793H387.076C388.86 884.793 390.197 883.456 390.197 881.672V871.715C390.197 870.229 389.157 869.04 387.225 868.446L356.462 859.529C346.803 856.706 343.682 851.653 343.682 841.101L343.533 840.953ZM418.433 882.267H438.496V902.626H418.433V882.267ZM524.096 886.874H491.104L486.794 902.626H465.84L493.928 809.001H523.204L550.103 902.626H528.703L524.393 886.874H524.096ZM519.043 869.189L507.6 826.983L495.86 869.189H519.192H519.043ZM619.801 863.839L614.749 868.149L631.542 902.775H608.953L594.092 870.527H580.419V902.626H560.06V809.001H607.318C619.058 809.001 627.083 816.135 627.083 826.983V845.263C627.083 854.477 626.043 858.786 619.801 863.988V863.839ZM606.723 849.572V830.699C606.723 828.915 605.386 827.578 603.603 827.578H580.419V852.842H603.603C605.386 852.842 606.723 851.504 606.723 849.721V849.572ZM701.092 809.001H727.544V902.626H707.928V843.628L687.568 902.626H681.624L661.412 843.777V902.626H642.687V809.001H669.14L685.339 860.272L701.24 809.001H701.092ZM819.386 809.001L787.732 866.96V902.775H767.372V867.108L736.61 809.001H760.536L778.518 845.56L796.5 809.001H819.386Z" fill="white"/>
</svg>
